<svg width="19" height="22" viewBox="0 0 19 22" fill="none" xmlns="http://www.w3.org/2000/svg">
<path d="M9.5 12.1C9.13846 12.0961 8.78431 12.1949 8.48521 12.383C8.18611 12.5712 7.95642 12.8397 7.82707 13.1525C7.69771 13.4652 7.67489 13.8072 7.76168 14.1323C7.84847 14.4574 8.0407 14.7501 8.3125 14.971V16.5C8.3125 16.7917 8.43761 17.0715 8.66031 17.2778C8.88301 17.4841 9.18506 17.6 9.5 17.6C9.81494 17.6 10.117 17.4841 10.3397 17.2778C10.5624 17.0715 10.6875 16.7917 10.6875 16.5V14.971C10.9593 14.7501 11.1515 14.4574 11.2383 14.1323C11.3251 13.8072 11.3023 13.4652 11.1729 13.1525C11.0436 12.8397 10.8139 12.5712 10.5148 12.383C10.2157 12.1949 9.86154 12.0961 9.5 12.1ZM15.4375 7.7V5.5C15.4375 4.04131 14.8119 2.64236 13.6984 1.61091C12.5849 0.579463 11.0747 0 9.5 0C7.92528 0 6.41505 0.579463 5.30155 1.61091C4.18806 2.64236 3.5625 4.04131 3.5625 5.5V7.7C2.61767 7.7 1.71153 8.04768 1.04343 8.66655C0.375334 9.28542 0 10.1248 0 11V18.7C0 19.5752 0.375334 20.4146 1.04343 21.0335C1.71153 21.6523 2.61767 22 3.5625 22H15.4375C16.3823 22 17.2885 21.6523 17.9566 21.0335C18.6247 20.4146 19 19.5752 19 18.7V11C19 10.1248 18.6247 9.28542 17.9566 8.66655C17.2885 8.04768 16.3823 7.7 15.4375 7.7ZM5.9375 5.5C5.9375 4.62479 6.31283 3.78542 6.98093 3.16655C7.64903 2.54768 8.55517 2.2 9.5 2.2C10.4448 2.2 11.351 2.54768 12.0191 3.16655C12.6872 3.78542 13.0625 4.62479 13.0625 5.5V7.7H5.9375V5.5ZM16.625 18.7C16.625 18.9917 16.4999 19.2715 16.2772 19.4778C16.0545 19.6841 15.7524 19.8 15.4375 19.8H3.5625C3.24756 19.8 2.94551 19.6841 2.72281 19.4778C2.50011 19.2715 2.375 18.9917 2.375 18.7V11C2.375 10.7083 2.50011 10.4285 2.72281 10.2222C2.94551 10.0159 3.24756 9.9 3.5625 9.9H15.4375C15.7524 9.9 16.0545 10.0159 16.2772 10.2222C16.4999 10.4285 16.625 10.7083 16.625 11V18.7Z" fill="black"/>
</svg>
