<svg width="357" height="249" viewBox="0 0 357 249" fill="none" xmlns="http://www.w3.org/2000/svg">
<path d="M365.5 31.5C365.5 151.397 278.147 248.5 170.5 248.5C62.8533 248.5 -24.5 151.397 -24.5 31.5C-24.5 -88.3973 62.8533 -185.5 170.5 -185.5C278.147 -185.5 365.5 -88.3973 365.5 31.5Z" fill="#9B020E" stroke="#D9D9D9"/>
<ellipse cx="142.5" cy="-13.5" rx="195.5" ry="217.5" fill="#C24A53" fill-opacity="0.45"/>
<path d="M337.5 -13.5C337.5 106.397 250.147 203.5 142.5 203.5C34.8533 203.5 -52.5 106.397 -52.5 -13.5C-52.5 -133.397 34.8533 -230.5 142.5 -230.5C250.147 -230.5 337.5 -133.397 337.5 -13.5Z" stroke="#9B020E" stroke-opacity="0.53"/>
<path d="M294.5 -72.5C294.5 47.3973 207.147 144.5 99.5 144.5C-8.14671 144.5 -95.5 47.3973 -95.5 -72.5C-95.5 -192.397 -8.14671 -289.5 99.5 -289.5C207.147 -289.5 294.5 -192.397 294.5 -72.5Z" fill="#CC2F3B" fill-opacity="0.81" stroke="#CC2F3B"/>
<path d="M255.5 -130.5C255.5 -10.6027 168.147 86.5 60.5 86.5C-47.1467 86.5 -134.5 -10.6027 -134.5 -130.5C-134.5 -250.397 -47.1467 -347.5 60.5 -347.5C168.147 -347.5 255.5 -250.397 255.5 -130.5Z" fill="#DF404C" stroke="#C24A53"/>
</svg>
