<svg width="20" height="20" viewBox="0 0 20 20" fill="none" xmlns="http://www.w3.org/2000/svg">
<path d="M8.56867 0.154354C8.6091 0.203233 8.64117 0.261277 8.66305 0.325169C8.68493 0.38906 8.69619 0.457547 8.69619 0.526711C8.69619 0.595874 8.68493 0.664361 8.66305 0.728252C8.64117 0.792144 8.6091 0.850186 8.56867 0.899065L1.4851 9.47376H19.5652C19.6805 9.47376 19.7911 9.52921 19.8727 9.62791C19.9542 9.72661 20 9.86048 20 10.0001C20 10.1396 19.9542 10.2735 19.8727 10.3722C19.7911 10.4709 19.6805 10.5264 19.5652 10.5264H1.4851L8.56867 19.1011C8.60907 19.15 8.64111 19.208 8.66297 19.2719C8.68484 19.3358 8.69609 19.4043 8.69609 19.4734C8.69609 19.5426 8.68484 19.611 8.66297 19.6749C8.64111 19.7388 8.60907 19.7969 8.56867 19.8458C8.52828 19.8947 8.48032 19.9335 8.42754 19.9599C8.37476 19.9864 8.3182 20 8.26107 20C8.20394 20 8.14737 19.9864 8.0946 19.9599C8.04182 19.9335 7.99386 19.8947 7.95347 19.8458L0.127514 10.3724C0.0870898 10.3235 0.0550214 10.2655 0.0331417 10.2016C0.0112619 10.1377 0 10.0692 0 10.0001C0 9.9309 0.0112619 9.86241 0.0331417 9.79852C0.0550214 9.73463 0.0870898 9.67658 0.127514 9.6277L7.95347 0.154354C7.99385 0.105421 8.0418 0.0666028 8.09458 0.0401173C8.14736 0.0136317 8.20393 0 8.26107 0C8.31821 0 8.37478 0.0136317 8.42756 0.0401173C8.48034 0.0666028 8.52829 0.105421 8.56867 0.154354Z" fill="black"/>
</svg>
