<svg width="54" height="59" viewBox="0 0 54 59" fill="none" xmlns="http://www.w3.org/2000/svg">
<rect width="54" height="59" fill="#9B020E"/>
<path d="M16.5478 7.19434L15.9375 7.20342L15.6871 7.8046C14.3946 11.4722 13.609 15.5194 13.609 19.3371C13.609 24.5888 15.059 28.4358 17.5029 30.946C19.353 32.8462 21.7373 33.9437 24.3541 34.364C26.023 39.0627 25.9249 44.2277 24.1039 48.8842C21.12 49.384 18.2197 50.6687 15.6749 52.7416H38.255C35.7095 50.6684 32.8106 49.3838 29.826 48.8842C28.003 44.2227 27.91 39.0516 29.585 34.3486C32.1807 33.9207 34.5498 32.8299 36.3965 30.9461C38.8559 28.4371 40.3209 24.5906 40.3209 19.3372C40.3209 15.5195 39.5352 11.4723 38.2428 7.8046L38.0291 7.19424H16.5477L16.5478 7.19434ZM17.207 9.01915H36.7229C37.4309 11.1495 37.9573 13.4043 38.2457 15.6324H15.6842C15.9726 13.4043 16.499 11.1495 17.2069 9.01915H17.207ZM15.501 17.4572H38.4287C38.4726 18.091 38.4961 18.7182 38.4961 19.3371C38.4961 24.2548 37.1566 27.5656 35.0933 29.6704C33.0298 31.7753 30.1816 32.7374 26.936 32.7374C23.6901 32.7374 20.8572 31.7742 18.8091 29.6705C16.7609 27.5668 15.4338 24.2567 15.4338 19.3372C15.4338 18.7183 15.4572 18.0911 15.501 17.4573V17.4572Z" fill="white"/>
</svg>
