<svg width="19" height="22" viewBox="0 0 19 22" fill="none" xmlns="http://www.w3.org/2000/svg">
<path d="M9.50177 1.29412C8.64129 1.29412 7.81605 1.63498 7.2076 2.24171C6.59915 2.84845 6.25733 3.67136 6.25733 4.52941C6.25733 5.38747 6.59915 6.21037 7.2076 6.81711C7.81605 7.42385 8.64129 7.76471 9.50177 7.76471C10.3622 7.76471 11.1875 7.42385 11.7959 6.81711C12.4044 6.21037 12.7462 5.38747 12.7462 4.52941C12.7462 3.67136 12.4044 2.84845 11.7959 2.24171C11.1875 1.63498 10.3622 1.29412 9.50177 1.29412ZM4.95955 4.52941C4.95955 3.9346 5.07704 3.34561 5.30531 2.79608C5.53358 2.24655 5.86815 1.74723 6.28994 1.32663C6.71172 0.906039 7.21245 0.572405 7.76354 0.344781C8.31462 0.117157 8.90527 0 9.50177 0C10.0983 0 10.6889 0.117157 11.24 0.344781C11.7911 0.572405 12.2918 0.906039 12.7136 1.32663C13.1354 1.74723 13.47 2.24655 13.6982 2.79608C13.9265 3.34561 14.044 3.9346 14.044 4.52941C14.044 5.73069 13.5654 6.88276 12.7136 7.73219C11.8618 8.58162 10.7064 9.05882 9.50177 9.05882C8.2971 9.05882 7.14177 8.58162 6.28994 7.73219C5.43811 6.88276 4.95955 5.73069 4.95955 4.52941ZM6.08862 11.7066C5.7858 11.7842 5.48602 11.8714 5.18926 11.968L3.94469 12.3756C3.43631 12.5407 2.97717 12.8295 2.60875 13.2158C2.24034 13.6022 1.97424 14.074 1.83451 14.5886L1.3167 18.3156C1.1999 19.1529 1.64503 19.8427 2.34973 20.0109C3.73445 20.3409 6.04968 20.7059 9.50047 20.7059C12.9525 20.7059 15.2691 20.3409 16.6538 20.0109C17.3585 19.8427 17.8023 19.1529 17.6868 18.3156L17.1677 14.5886C17.028 14.074 16.7619 13.6022 16.3935 13.2158C16.0251 12.8295 15.5659 12.5407 15.0575 12.3756L13.813 11.968C13.5162 11.8705 13.2169 11.7834 12.9149 11.7066C12.6805 11.89 12.4323 12.0553 12.1726 12.2009C11.3594 12.6667 10.4395 12.9155 9.50177 12.9231C8.38568 12.9231 7.46426 12.5568 6.83095 12.2009C6.57077 12.0553 6.32346 11.8901 6.08862 11.7066ZM6.45719 10.2895L6.70895 10.5367L6.71544 10.5432L6.74659 10.5716C6.77687 10.5993 6.82489 10.6389 6.89064 10.6907C7.02042 10.7942 7.21638 10.934 7.46685 11.0738C7.96909 11.3559 8.66989 11.6289 9.50047 11.6289C10.331 11.6289 11.0318 11.3572 11.5341 11.0738C11.7894 10.9299 12.0302 10.7618 12.253 10.5716L12.2855 10.5419L12.2907 10.538L12.5425 10.2895L12.8903 10.3698C13.3367 10.4716 13.7788 10.5945 14.2166 10.7386L15.4624 11.1462C16.1846 11.3801 16.8357 11.7922 17.3553 12.3442C17.8749 12.8963 18.2461 13.5704 18.4343 14.3039L18.4434 14.3388L18.9703 18.1384C19.1611 19.5101 18.4253 20.9207 16.9536 21.2701C15.4611 21.6247 13.0434 22 9.50047 22C5.95754 22 3.53979 21.6247 2.04735 21.2701C0.575669 20.9207 -0.16017 19.5101 0.0293055 18.1384L0.557499 14.3388L0.566584 14.3039C0.754841 13.5704 1.12602 12.8963 1.64561 12.3442C2.1652 11.7922 2.81634 11.3801 3.53849 11.1462L4.78435 10.7386C5.22214 10.5954 5.66424 10.4724 6.11068 10.3698L6.45719 10.2895Z" fill="black"/>
</svg>
