<svg width="60" height="56" viewBox="0 0 60 56" fill="none" xmlns="http://www.w3.org/2000/svg">
<rect width="60" height="56" rx="5" fill="url(#paint0_linear_40_295)"/>
<path d="M29.5 33.4C22.92 33.4 17.6 28.08 17.6 21.5C17.6 14.92 22.92 9.59998 29.5 9.59998C36.08 9.59998 41.4 14.92 41.4 21.5C41.4 28.08 36.08 33.4 29.5 33.4ZM29.5 11C23.69 11 19 15.69 19 21.5C19 27.31 23.69 32 29.5 32C35.31 32 40 27.31 40 21.5C40 15.69 35.31 11 29.5 11Z" fill="black"/>
<path d="M29.29 28.29L28.31 27.31L34.12 21.5L28.31 15.69L29.29 14.71L36.08 21.5L29.29 28.29Z" fill="black"/>
<path d="M23.2 20.8H35.1V22.2H23.2V20.8Z" fill="black"/>
<path d="M13.496 40.612V41.308H9.8V44.44H12.92V45.136H9.8V49H8.96V40.612H13.496ZM17.746 49.096C17.13 49.096 16.574 48.96 16.078 48.688C15.59 48.408 15.202 48.016 14.914 47.512C14.634 47 14.494 46.404 14.494 45.724C14.494 45.044 14.638 44.452 14.926 43.948C15.214 43.436 15.606 43.044 16.102 42.772C16.598 42.492 17.154 42.352 17.77 42.352C18.386 42.352 18.942 42.492 19.438 42.772C19.942 43.044 20.334 43.436 20.614 43.948C20.902 44.452 21.046 45.044 21.046 45.724C21.046 46.396 20.902 46.988 20.614 47.5C20.326 48.012 19.93 48.408 19.426 48.688C18.922 48.96 18.362 49.096 17.746 49.096ZM17.746 48.364C18.178 48.364 18.578 48.268 18.946 48.076C19.314 47.876 19.61 47.58 19.834 47.188C20.066 46.788 20.182 46.3 20.182 45.724C20.182 45.148 20.07 44.664 19.846 44.272C19.622 43.872 19.326 43.576 18.958 43.384C18.59 43.184 18.19 43.084 17.758 43.084C17.326 43.084 16.926 43.184 16.558 43.384C16.19 43.576 15.894 43.872 15.67 44.272C15.454 44.664 15.346 45.148 15.346 45.724C15.346 46.3 15.454 46.788 15.67 47.188C15.894 47.58 16.186 47.876 16.546 48.076C16.914 48.268 17.314 48.364 17.746 48.364ZM23.4172 43.612C23.6012 43.204 23.8812 42.888 24.2572 42.664C24.6412 42.44 25.1092 42.328 25.6612 42.328V43.204H25.4332C24.8252 43.204 24.3372 43.368 23.9692 43.696C23.6012 44.024 23.4172 44.572 23.4172 45.34V49H22.5772V42.448H23.4172V43.612ZM35.5648 42.448L33.5128 49H32.6728L30.8608 43.504L29.0488 49H28.1968L26.1448 42.448H26.9968L28.6288 48.148L30.4648 42.448H31.3048L33.1168 48.16L34.7368 42.448H35.5648ZM36.326 45.712C36.326 45.04 36.458 44.452 36.722 43.948C36.994 43.436 37.366 43.044 37.838 42.772C38.318 42.492 38.858 42.352 39.458 42.352C40.082 42.352 40.618 42.496 41.066 42.784C41.522 43.072 41.85 43.44 42.05 43.888V42.448H42.89V49H42.05V47.548C41.842 47.996 41.51 48.368 41.054 48.664C40.606 48.952 40.07 49.096 39.446 49.096C38.854 49.096 38.318 48.956 37.838 48.676C37.366 48.396 36.994 48 36.722 47.488C36.458 46.976 36.326 46.384 36.326 45.712ZM42.05 45.724C42.05 45.196 41.942 44.732 41.726 44.332C41.51 43.932 41.214 43.624 40.838 43.408C40.47 43.192 40.062 43.084 39.614 43.084C39.15 43.084 38.734 43.188 38.366 43.396C37.998 43.604 37.706 43.908 37.49 44.308C37.282 44.7 37.178 45.168 37.178 45.712C37.178 46.248 37.282 46.72 37.49 47.128C37.706 47.528 37.998 47.836 38.366 48.052C38.734 48.26 39.15 48.364 39.614 48.364C40.062 48.364 40.47 48.256 40.838 48.04C41.214 47.824 41.51 47.516 41.726 47.116C41.942 46.716 42.05 46.252 42.05 45.724ZM45.6477 43.612C45.8317 43.204 46.1117 42.888 46.4877 42.664C46.8717 42.44 47.3397 42.328 47.8917 42.328V43.204H47.6637C47.0557 43.204 46.5677 43.368 46.1997 43.696C45.8317 44.024 45.6477 44.572 45.6477 45.34V49H44.8077V42.448H45.6477V43.612ZM48.7713 45.712C48.7713 45.04 48.9073 44.452 49.1793 43.948C49.4513 43.436 49.8233 43.044 50.2953 42.772C50.7753 42.492 51.3153 42.352 51.9153 42.352C52.4913 42.352 53.0113 42.492 53.4753 42.772C53.9393 43.052 54.2793 43.416 54.4953 43.864V40.12H55.3353V49H54.4953V47.536C54.2953 47.992 53.9673 48.368 53.5113 48.664C53.0553 48.952 52.5193 49.096 51.9033 49.096C51.3033 49.096 50.7633 48.956 50.2833 48.676C49.8113 48.396 49.4393 48 49.1673 47.488C48.9033 46.976 48.7713 46.384 48.7713 45.712ZM54.4953 45.724C54.4953 45.196 54.3873 44.732 54.1713 44.332C53.9553 43.932 53.6593 43.624 53.2833 43.408C52.9153 43.192 52.5073 43.084 52.0593 43.084C51.5953 43.084 51.1793 43.188 50.8113 43.396C50.4433 43.604 50.1513 43.908 49.9353 44.308C49.7273 44.7 49.6233 45.168 49.6233 45.712C49.6233 46.248 49.7273 46.72 49.9353 47.128C50.1513 47.528 50.4433 47.836 50.8113 48.052C51.1793 48.26 51.5953 48.364 52.0593 48.364C52.5073 48.364 52.9153 48.256 53.2833 48.04C53.6593 47.824 53.9553 47.516 54.1713 47.116C54.3873 46.716 54.4953 46.252 54.4953 45.724Z" fill="black"/>
<defs>
<linearGradient id="paint0_linear_40_295" x1="30" y1="0" x2="30" y2="56" gradientUnits="userSpaceOnUse">
<stop stop-color="#3C92B4" stop-opacity="0.74"/>
<stop offset="1" stop-color="#7DA6B6"/>
</linearGradient>
</defs>
</svg>
