<svg width="26" height="26" viewBox="0 0 26 26" fill="none" xmlns="http://www.w3.org/2000/svg">
<g clip-path="url(#clip0_15_49)">
<path fill-rule="evenodd" clip-rule="evenodd" d="M13 16.5C13.4596 16.5 13.9148 16.4095 14.3394 16.2336C14.764 16.0577 15.1499 15.7999 15.4749 15.4749C15.7999 15.1499 16.0577 14.764 16.2336 14.3394C16.4095 13.9148 16.5 13.4596 16.5 13C16.5 12.5404 16.4095 12.0852 16.2336 11.6606C16.0577 11.236 15.7999 10.8501 15.4749 10.5251C15.1499 10.2001 14.764 9.94231 14.3394 9.76642C13.9148 9.59053 13.4596 9.5 13 9.5C12.0717 9.5 11.1815 9.86875 10.5251 10.5251C9.86875 11.1815 9.5 12.0717 9.5 13C9.5 13.9283 9.86875 14.8185 10.5251 15.4749C11.1815 16.1313 12.0717 16.5 13 16.5ZM13 10.5C13.663 10.5 14.2989 10.7634 14.7678 11.2322C15.2366 11.7011 15.5 12.337 15.5 13C15.5 13.663 15.2366 14.2989 14.7678 14.7678C14.2989 15.2366 13.663 15.5 13 15.5C12.337 15.5 11.7011 15.2366 11.2322 14.7678C10.7634 14.2989 10.5 13.663 10.5 13C10.5 12.337 10.7634 11.7011 11.2322 11.2322C11.7011 10.7634 12.337 10.5 13 10.5Z" fill="black"/>
<path d="M4.5 12.5C4.22386 12.5 4 12.7239 4 13C4 13.2761 4.22386 13.5 4.5 13.5H6.5C6.77614 13.5 7 13.2761 7 13C7 12.7239 6.77614 12.5 6.5 12.5H4.5Z" fill="black"/>
<path d="M19.5 12.5C19.2239 12.5 19 12.7239 19 13C19 13.2761 19.2239 13.5 19.5 13.5H21.5C21.7761 13.5 22 13.2761 22 13C22 12.7239 21.7761 12.5 21.5 12.5H19.5Z" fill="black"/>
<path d="M18.0607 17.3534C17.8654 17.1582 17.5488 17.1582 17.3536 17.3534C17.1583 17.5487 17.1583 17.8653 17.3536 18.0606L18.7678 19.4748C18.963 19.67 19.2796 19.67 19.4749 19.4748C19.6701 19.2795 19.6701 18.9629 19.4749 18.7677L18.0607 17.3534Z" fill="black"/>
<path d="M7.06066 6.35345C6.8654 6.15819 6.54882 6.15819 6.35355 6.35345C6.15829 6.54871 6.15829 6.86529 6.35355 7.06055L7.76777 8.47477C7.96303 8.67003 8.27961 8.67003 8.47487 8.47477C8.67014 8.27951 8.67014 7.96292 8.47487 7.76766L7.06066 6.35345Z" fill="black"/>
<path d="M13.5 19.5C13.5 19.2239 13.2761 19 13 19C12.7239 19 12.5 19.2239 12.5 19.5V21.5C12.5 21.7761 12.7239 22 13 22C13.2761 22 13.5 21.7761 13.5 21.5V19.5Z" fill="black"/>
<path d="M13.5 4.5C13.5 4.22386 13.2761 4 13 4C12.7239 4 12.5 4.22386 12.5 4.5V6.5C12.5 6.77614 12.7239 7 13 7C13.2761 7 13.5 6.77614 13.5 6.5V4.5Z" fill="black"/>
<path d="M19.4746 7.06066C19.6698 6.8654 19.6698 6.54882 19.4746 6.35355C19.2793 6.15829 18.9627 6.15829 18.7674 6.35355L17.3532 7.76777C17.158 7.96303 17.158 8.27961 17.3532 8.47487C17.5485 8.67014 17.8651 8.67014 18.0603 8.47487L19.4746 7.06066Z" fill="black"/>
<path d="M8.47456 18.0607C8.66982 17.8654 8.66982 17.5488 8.47456 17.3536C8.27929 17.1583 7.96271 17.1583 7.76745 17.3536L6.35324 18.7678C6.15797 18.963 6.15797 19.2796 6.35324 19.4749C6.5485 19.6701 6.86508 19.6701 7.06034 19.4749L8.47456 18.0607Z" fill="black"/>
<path fill-rule="evenodd" clip-rule="evenodd" d="M13 24.5C19.351 24.5 24.5 19.351 24.5 13C24.5 6.649 19.351 1.5 13 1.5C6.649 1.5 1.5 6.649 1.5 13C1.5 19.351 6.649 24.5 13 24.5ZM13 25.5C19.904 25.5 25.5 19.904 25.5 13C25.5 6.096 19.904 0.5 13 0.5C6.096 0.5 0.5 6.096 0.5 13C0.5 19.904 6.096 25.5 13 25.5Z" fill="black"/>
</g>
<defs>
<clipPath id="clip0_15_49">
<rect width="26" height="26" fill="white"/>
</clipPath>
</defs>
</svg>
