<svg width="60" height="56" viewBox="0 0 60 56" fill="none" xmlns="http://www.w3.org/2000/svg">
<rect width="60" height="56" rx="5" fill="url(#paint0_linear_40_296)"/>
<path d="M29.5 34.4C22.92 34.4 17.6 29.08 17.6 22.5C17.6 15.92 22.92 10.6 29.5 10.6C36.08 10.6 41.4 15.92 41.4 22.5C41.4 29.08 36.08 34.4 29.5 34.4ZM29.5 12C23.69 12 19 16.69 19 22.5C19 28.31 23.69 33 29.5 33C35.31 33 40 28.31 40 22.5C40 16.69 35.31 12 29.5 12Z" fill="white"/>
<path d="M29.29 29.29L28.31 28.31L34.12 22.5L28.31 16.69L29.29 15.71L36.08 22.5L29.29 29.29Z" fill="white"/>
<path d="M23.2 21.8H35.1V23.2H23.2V21.8Z" fill="white"/>
<path d="M9.496 40.612V41.308H5.8V44.44H8.92V45.136H5.8V49H4.96V40.612H9.496ZM13.746 49.096C13.13 49.096 12.574 48.96 12.078 48.688C11.59 48.408 11.202 48.016 10.914 47.512C10.634 47 10.494 46.404 10.494 45.724C10.494 45.044 10.638 44.452 10.926 43.948C11.214 43.436 11.606 43.044 12.102 42.772C12.598 42.492 13.154 42.352 13.77 42.352C14.386 42.352 14.942 42.492 15.438 42.772C15.942 43.044 16.334 43.436 16.614 43.948C16.902 44.452 17.046 45.044 17.046 45.724C17.046 46.396 16.902 46.988 16.614 47.5C16.326 48.012 15.93 48.408 15.426 48.688C14.922 48.96 14.362 49.096 13.746 49.096ZM13.746 48.364C14.178 48.364 14.578 48.268 14.946 48.076C15.314 47.876 15.61 47.58 15.834 47.188C16.066 46.788 16.182 46.3 16.182 45.724C16.182 45.148 16.07 44.664 15.846 44.272C15.622 43.872 15.326 43.576 14.958 43.384C14.59 43.184 14.19 43.084 13.758 43.084C13.326 43.084 12.926 43.184 12.558 43.384C12.19 43.576 11.894 43.872 11.67 44.272C11.454 44.664 11.346 45.148 11.346 45.724C11.346 46.3 11.454 46.788 11.67 47.188C11.894 47.58 12.186 47.876 12.546 48.076C12.914 48.268 13.314 48.364 13.746 48.364ZM19.4172 43.612C19.6012 43.204 19.8812 42.888 20.2572 42.664C20.6412 42.44 21.1092 42.328 21.6612 42.328V43.204H21.4332C20.8252 43.204 20.3372 43.368 19.9692 43.696C19.6012 44.024 19.4172 44.572 19.4172 45.34V49H18.5772V42.448H19.4172V43.612ZM31.5648 42.448L29.5128 49H28.6728L26.8608 43.504L25.0488 49H24.1968L22.1448 42.448H22.9968L24.6288 48.148L26.4648 42.448H27.3048L29.1168 48.16L30.7368 42.448H31.5648ZM32.326 45.712C32.326 45.04 32.458 44.452 32.722 43.948C32.994 43.436 33.366 43.044 33.838 42.772C34.318 42.492 34.858 42.352 35.458 42.352C36.082 42.352 36.618 42.496 37.066 42.784C37.522 43.072 37.85 43.44 38.05 43.888V42.448H38.89V49H38.05V47.548C37.842 47.996 37.51 48.368 37.054 48.664C36.606 48.952 36.07 49.096 35.446 49.096C34.854 49.096 34.318 48.956 33.838 48.676C33.366 48.396 32.994 48 32.722 47.488C32.458 46.976 32.326 46.384 32.326 45.712ZM38.05 45.724C38.05 45.196 37.942 44.732 37.726 44.332C37.51 43.932 37.214 43.624 36.838 43.408C36.47 43.192 36.062 43.084 35.614 43.084C35.15 43.084 34.734 43.188 34.366 43.396C33.998 43.604 33.706 43.908 33.49 44.308C33.282 44.7 33.178 45.168 33.178 45.712C33.178 46.248 33.282 46.72 33.49 47.128C33.706 47.528 33.998 47.836 34.366 48.052C34.734 48.26 35.15 48.364 35.614 48.364C36.062 48.364 36.47 48.256 36.838 48.04C37.214 47.824 37.51 47.516 37.726 47.116C37.942 46.716 38.05 46.252 38.05 45.724ZM41.6477 43.612C41.8317 43.204 42.1117 42.888 42.4877 42.664C42.8717 42.44 43.3397 42.328 43.8917 42.328V43.204H43.6637C43.0557 43.204 42.5677 43.368 42.1997 43.696C41.8317 44.024 41.6477 44.572 41.6477 45.34V49H40.8077V42.448H41.6477V43.612ZM44.7713 45.712C44.7713 45.04 44.9073 44.452 45.1793 43.948C45.4513 43.436 45.8233 43.044 46.2953 42.772C46.7753 42.492 47.3153 42.352 47.9153 42.352C48.4913 42.352 49.0113 42.492 49.4753 42.772C49.9393 43.052 50.2793 43.416 50.4953 43.864V40.12H51.3353V49H50.4953V47.536C50.2953 47.992 49.9673 48.368 49.5113 48.664C49.0553 48.952 48.5193 49.096 47.9033 49.096C47.3033 49.096 46.7633 48.956 46.2833 48.676C45.8113 48.396 45.4393 48 45.1673 47.488C44.9033 46.976 44.7713 46.384 44.7713 45.712ZM50.4953 45.724C50.4953 45.196 50.3873 44.732 50.1713 44.332C49.9553 43.932 49.6593 43.624 49.2833 43.408C48.9153 43.192 48.5073 43.084 48.0593 43.084C47.5953 43.084 47.1793 43.188 46.8113 43.396C46.4433 43.604 46.1513 43.908 45.9353 44.308C45.7273 44.7 45.6233 45.168 45.6233 45.712C45.6233 46.248 45.7273 46.72 45.9353 47.128C46.1513 47.528 46.4433 47.836 46.8113 48.052C47.1793 48.26 47.5953 48.364 48.0593 48.364C48.5073 48.364 48.9153 48.256 49.2833 48.04C49.6593 47.824 49.9553 47.516 50.1713 47.116C50.3873 46.716 50.4953 46.252 50.4953 45.724Z" fill="white"/>
<defs>
<linearGradient id="paint0_linear_40_296" x1="30" y1="0" x2="30" y2="56" gradientUnits="userSpaceOnUse">
<stop offset="0.64" stop-color="#06435B"/>
<stop offset="1"/>
</linearGradient>
</defs>
</svg>
