<svg width="40" height="40" viewBox="0 0 40 40" fill="none" xmlns="http://www.w3.org/2000/svg">
<path d="M20 33.6C12.48 33.6 6.40002 27.52 6.40002 20C6.40002 12.48 12.48 6.4 20 6.4C27.52 6.4 33.6 12.48 33.6 20C33.6 27.52 27.52 33.6 20 33.6ZM20 8C13.36 8 8.00002 13.36 8.00002 20C8.00002 26.64 13.36 32 20 32C26.64 32 32 26.64 32 20C32 13.36 26.64 8 20 8Z" fill="#03364A"/>
<path d="M19.76 27.76L18.64 26.64L25.28 20L18.64 13.36L19.76 12.24L27.52 20L19.76 27.76Z" fill="#03364A"/>
<path d="M12.8 19.2H26.4V20.8H12.8V19.2Z" fill="#03364A"/>
</svg>
