<svg width="60" height="56" viewBox="0 0 60 56" fill="none" xmlns="http://www.w3.org/2000/svg">
<rect width="60" height="56" rx="5" fill="url(#paint0_linear_41_298)"/>
<path d="M30.5 34.4C23.92 34.4 18.6 29.08 18.6 22.5C18.6 15.92 23.92 10.6 30.5 10.6C37.08 10.6 42.4 15.92 42.4 22.5C42.4 29.08 37.08 34.4 30.5 34.4ZM30.5 12C24.69 12 20 16.69 20 22.5C20 28.31 24.69 33 30.5 33C36.31 33 41 28.31 41 22.5C41 16.69 36.31 12 30.5 12Z" fill="white"/>
<path d="M30.71 29.29L23.92 22.5L30.71 15.71L31.69 16.69L25.88 22.5L31.69 28.31L30.71 29.29Z" fill="white"/>
<path d="M24.9 21.8H36.8V23.2H24.9V21.8Z" fill="white"/>
<path d="M5.884 44.668C6.356 44.756 6.756 44.996 7.084 45.388C7.412 45.78 7.576 46.236 7.576 46.756C7.576 47.18 7.468 47.564 7.252 47.908C7.044 48.244 6.736 48.512 6.328 48.712C5.92 48.904 5.432 49 4.864 49H1.96V40.612H4.78C5.628 40.612 6.272 40.808 6.712 41.2C7.16 41.592 7.384 42.1 7.384 42.724C7.384 43.244 7.244 43.668 6.964 43.996C6.684 44.316 6.324 44.54 5.884 44.668ZM2.8 44.32H4.756C5.324 44.32 5.76 44.188 6.064 43.924C6.376 43.652 6.532 43.28 6.532 42.808C6.532 42.344 6.376 41.98 6.064 41.716C5.76 41.452 5.312 41.32 4.72 41.32H2.8V44.32ZM4.804 48.292C5.412 48.292 5.884 48.148 6.22 47.86C6.564 47.572 6.736 47.176 6.736 46.672C6.736 46.168 6.556 45.768 6.196 45.472C5.844 45.168 5.368 45.016 4.768 45.016H2.8V48.292H4.804ZM8.73616 45.712C8.73616 45.04 8.86816 44.452 9.13216 43.948C9.40416 43.436 9.77616 43.044 10.2482 42.772C10.7282 42.492 11.2682 42.352 11.8682 42.352C12.4922 42.352 13.0282 42.496 13.4762 42.784C13.9322 43.072 14.2602 43.44 14.4602 43.888V42.448H15.3002V49H14.4602V47.548C14.2522 47.996 13.9202 48.368 13.4642 48.664C13.0162 48.952 12.4802 49.096 11.8562 49.096C11.2642 49.096 10.7282 48.956 10.2482 48.676C9.77616 48.396 9.40416 48 9.13216 47.488C8.86816 46.976 8.73616 46.384 8.73616 45.712ZM14.4602 45.724C14.4602 45.196 14.3522 44.732 14.1362 44.332C13.9202 43.932 13.6242 43.624 13.2482 43.408C12.8802 43.192 12.4722 43.084 12.0242 43.084C11.5602 43.084 11.1442 43.188 10.7762 43.396C10.4082 43.604 10.1162 43.908 9.90016 44.308C9.69216 44.7 9.58816 45.168 9.58816 45.712C9.58816 46.248 9.69216 46.72 9.90016 47.128C10.1162 47.528 10.4082 47.836 10.7762 48.052C11.1442 48.26 11.5602 48.364 12.0242 48.364C12.4722 48.364 12.8802 48.256 13.2482 48.04C13.6242 47.824 13.9202 47.516 14.1362 47.116C14.3522 46.716 14.4602 46.252 14.4602 45.724ZM16.8338 45.724C16.8338 45.044 16.9698 44.452 17.2418 43.948C17.5138 43.436 17.8898 43.044 18.3698 42.772C18.8498 42.492 19.3978 42.352 20.0138 42.352C20.8218 42.352 21.4858 42.552 22.0058 42.952C22.5338 43.352 22.8738 43.896 23.0258 44.584H22.1258C22.0138 44.112 21.7698 43.744 21.3938 43.48C21.0258 43.208 20.5658 43.072 20.0138 43.072C19.5738 43.072 19.1778 43.172 18.8258 43.372C18.4738 43.572 18.1938 43.872 17.9858 44.272C17.7858 44.664 17.6858 45.148 17.6858 45.724C17.6858 46.3 17.7858 46.788 17.9858 47.188C18.1938 47.588 18.4738 47.888 18.8258 48.088C19.1778 48.288 19.5738 48.388 20.0138 48.388C20.5658 48.388 21.0258 48.256 21.3938 47.992C21.7698 47.72 22.0138 47.344 22.1258 46.864H23.0258C22.8738 47.536 22.5338 48.076 22.0058 48.484C21.4778 48.892 20.8138 49.096 20.0138 49.096C19.3978 49.096 18.8498 48.96 18.3698 48.688C17.8898 48.408 17.5138 48.016 17.2418 47.512C16.9698 47 16.8338 46.404 16.8338 45.724ZM28.1172 49L25.4172 46.06V49H24.5772V40.12H25.4172V45.376L28.0572 42.448H29.2332L26.1252 45.712L29.2572 49H28.1172ZM38.9828 42.448L36.9308 49H36.0908L34.2788 43.504L32.4668 49H31.6148L29.5628 42.448H30.4148L32.0468 48.148L33.8828 42.448H34.7228L36.5348 48.16L38.1548 42.448H38.9828ZM39.744 45.712C39.744 45.04 39.876 44.452 40.14 43.948C40.412 43.436 40.784 43.044 41.256 42.772C41.736 42.492 42.276 42.352 42.876 42.352C43.5 42.352 44.036 42.496 44.484 42.784C44.94 43.072 45.268 43.44 45.468 43.888V42.448H46.308V49H45.468V47.548C45.26 47.996 44.928 48.368 44.472 48.664C44.024 48.952 43.488 49.096 42.864 49.096C42.272 49.096 41.736 48.956 41.256 48.676C40.784 48.396 40.412 48 40.14 47.488C39.876 46.976 39.744 46.384 39.744 45.712ZM45.468 45.724C45.468 45.196 45.36 44.732 45.144 44.332C44.928 43.932 44.632 43.624 44.256 43.408C43.888 43.192 43.48 43.084 43.032 43.084C42.568 43.084 42.152 43.188 41.784 43.396C41.416 43.604 41.124 43.908 40.908 44.308C40.7 44.7 40.596 45.168 40.596 45.712C40.596 46.248 40.7 46.72 40.908 47.128C41.124 47.528 41.416 47.836 41.784 48.052C42.152 48.26 42.568 48.364 43.032 48.364C43.48 48.364 43.888 48.256 44.256 48.04C44.632 47.824 44.928 47.516 45.144 47.116C45.36 46.716 45.468 46.252 45.468 45.724ZM49.0656 43.612C49.2496 43.204 49.5296 42.888 49.9056 42.664C50.2896 42.44 50.7576 42.328 51.3096 42.328V43.204H51.0816C50.4736 43.204 49.9856 43.368 49.6176 43.696C49.2496 44.024 49.0656 44.572 49.0656 45.34V49H48.2256V42.448H49.0656V43.612ZM52.1893 45.712C52.1893 45.04 52.3253 44.452 52.5973 43.948C52.8693 43.436 53.2413 43.044 53.7133 42.772C54.1933 42.492 54.7333 42.352 55.3333 42.352C55.9093 42.352 56.4293 42.492 56.8933 42.772C57.3573 43.052 57.6973 43.416 57.9133 43.864V40.12H58.7533V49H57.9133V47.536C57.7133 47.992 57.3853 48.368 56.9293 48.664C56.4733 48.952 55.9373 49.096 55.3213 49.096C54.7213 49.096 54.1813 48.956 53.7013 48.676C53.2293 48.396 52.8573 48 52.5853 47.488C52.3213 46.976 52.1893 46.384 52.1893 45.712ZM57.9133 45.724C57.9133 45.196 57.8053 44.732 57.5893 44.332C57.3733 43.932 57.0773 43.624 56.7013 43.408C56.3333 43.192 55.9253 43.084 55.4773 43.084C55.0133 43.084 54.5973 43.188 54.2293 43.396C53.8613 43.604 53.5693 43.908 53.3533 44.308C53.1453 44.7 53.0413 45.168 53.0413 45.712C53.0413 46.248 53.1453 46.72 53.3533 47.128C53.5693 47.528 53.8613 47.836 54.2293 48.052C54.5973 48.26 55.0133 48.364 55.4773 48.364C55.9253 48.364 56.3333 48.256 56.7013 48.04C57.0773 47.824 57.3733 47.516 57.5893 47.116C57.8053 46.716 57.9133 46.252 57.9133 45.724Z" fill="white"/>
<defs>
<linearGradient id="paint0_linear_41_298" x1="30" y1="0" x2="30" y2="56" gradientUnits="userSpaceOnUse">
<stop offset="0.64" stop-color="#06435B"/>
<stop offset="1"/>
</linearGradient>
</defs>
</svg>
