<svg width="60" height="56" viewBox="0 0 60 56" fill="none" xmlns="http://www.w3.org/2000/svg">
<rect width="60" height="56" rx="5" fill="url(#paint0_linear_42_299)"/>
<path d="M27.3033 27.6042H28.7617V17.3958H27.3033V27.6042ZM32.2383 27.6042H33.6967V17.3958H32.2383V27.6042ZM30.5044 35.625C28.6902 35.625 26.984 35.2808 25.3856 34.5925C23.7883 33.9032 22.3985 32.9679 21.2162 31.7867C20.034 30.6054 19.0983 29.2171 18.409 27.6217C17.7197 26.0263 17.375 24.3205 17.375 22.5044C17.375 20.6883 17.7197 18.982 18.409 17.3856C19.0973 15.7883 20.0311 14.3985 21.2104 13.2162C22.3897 12.034 23.7785 11.0983 25.3769 10.409C26.9752 9.71965 28.6815 9.375 30.4956 9.375C32.3098 9.375 34.016 9.71965 35.6144 10.409C37.2117 11.0973 38.6015 12.0316 39.7837 13.2119C40.966 14.3922 41.9017 15.781 42.591 17.3783C43.2803 18.9757 43.625 20.6815 43.625 22.4956C43.625 24.3098 43.2808 26.016 42.5925 27.6144C41.9042 29.2127 40.9689 30.6025 39.7867 31.7837C38.6044 32.965 37.2161 33.9008 35.6217 34.591C34.0272 35.2813 32.3215 35.626 30.5044 35.625ZM30.5 34.1667C33.7569 34.1667 36.5156 33.0365 38.776 30.776C41.0365 28.5156 42.1667 25.7569 42.1667 22.5C42.1667 19.2431 41.0365 16.4844 38.776 14.224C36.5156 11.9635 33.7569 10.8333 30.5 10.8333C27.2431 10.8333 24.4844 11.9635 22.224 14.224C19.9635 16.4844 18.8333 19.2431 18.8333 22.5C18.8333 25.7569 19.9635 28.5156 22.224 30.776C24.4844 33.0365 27.2431 34.1667 30.5 34.1667Z" fill="black"/>
<path d="M20.504 49.084C19.952 49.084 19.464 48.988 19.04 48.796C18.624 48.604 18.296 48.336 18.056 47.992C17.816 47.648 17.688 47.264 17.672 46.84H18.56C18.6 47.248 18.78 47.608 19.1 47.92C19.42 48.224 19.888 48.376 20.504 48.376C21.072 48.376 21.52 48.232 21.848 47.944C22.184 47.648 22.352 47.276 22.352 46.828C22.352 46.468 22.26 46.18 22.076 45.964C21.892 45.74 21.664 45.576 21.392 45.472C21.12 45.36 20.744 45.24 20.264 45.112C19.704 44.96 19.26 44.812 18.932 44.668C18.604 44.524 18.324 44.3 18.092 43.996C17.86 43.692 17.744 43.28 17.744 42.76C17.744 42.328 17.856 41.944 18.08 41.608C18.304 41.264 18.62 40.996 19.028 40.804C19.436 40.612 19.904 40.516 20.432 40.516C21.208 40.516 21.832 40.708 22.304 41.092C22.784 41.468 23.06 41.956 23.132 42.556H22.22C22.164 42.212 21.976 41.908 21.656 41.644C21.336 41.372 20.904 41.236 20.36 41.236C19.856 41.236 19.436 41.372 19.1 41.644C18.764 41.908 18.596 42.272 18.596 42.736C18.596 43.088 18.688 43.372 18.872 43.588C19.056 43.804 19.284 43.968 19.556 44.08C19.836 44.192 20.212 44.312 20.684 44.44C21.228 44.592 21.668 44.744 22.004 44.896C22.34 45.04 22.624 45.264 22.856 45.568C23.088 45.872 23.204 46.28 23.204 46.792C23.204 47.184 23.1 47.556 22.892 47.908C22.684 48.26 22.376 48.544 21.968 48.76C21.56 48.976 21.072 49.084 20.504 49.084ZM25.9192 43.156V47.224C25.9192 47.624 25.9952 47.9 26.1472 48.052C26.2992 48.204 26.5672 48.28 26.9512 48.28H27.7192V49H26.8192C26.2272 49 25.7872 48.864 25.4992 48.592C25.2112 48.312 25.0672 47.856 25.0672 47.224V43.156H24.1552V42.448H25.0672V40.804H25.9192V42.448H27.7192V43.156H25.9192ZM31.9725 49.096C31.3565 49.096 30.8005 48.96 30.3045 48.688C29.8165 48.408 29.4285 48.016 29.1405 47.512C28.8605 47 28.7205 46.404 28.7205 45.724C28.7205 45.044 28.8645 44.452 29.1525 43.948C29.4405 43.436 29.8325 43.044 30.3285 42.772C30.8245 42.492 31.3805 42.352 31.9965 42.352C32.6125 42.352 33.1685 42.492 33.6645 42.772C34.1685 43.044 34.5605 43.436 34.8405 43.948C35.1285 44.452 35.2725 45.044 35.2725 45.724C35.2725 46.396 35.1285 46.988 34.8405 47.5C34.5525 48.012 34.1565 48.408 33.6525 48.688C33.1485 48.96 32.5885 49.096 31.9725 49.096ZM31.9725 48.364C32.4045 48.364 32.8045 48.268 33.1725 48.076C33.5405 47.876 33.8365 47.58 34.0605 47.188C34.2925 46.788 34.4085 46.3 34.4085 45.724C34.4085 45.148 34.2965 44.664 34.0725 44.272C33.8485 43.872 33.5525 43.576 33.1845 43.384C32.8165 43.184 32.4165 43.084 31.9845 43.084C31.5525 43.084 31.1525 43.184 30.7845 43.384C30.4165 43.576 30.1205 43.872 29.8965 44.272C29.6805 44.664 29.5725 45.148 29.5725 45.724C29.5725 46.3 29.6805 46.788 29.8965 47.188C30.1205 47.58 30.4125 47.876 30.7725 48.076C31.1405 48.268 31.5405 48.364 31.9725 48.364ZM37.6318 43.888C37.8398 43.448 38.1678 43.084 38.6158 42.796C39.0718 42.5 39.6118 42.352 40.2358 42.352C40.8278 42.352 41.3598 42.492 41.8318 42.772C42.3118 43.044 42.6838 43.436 42.9478 43.948C43.2198 44.452 43.3558 45.04 43.3558 45.712C43.3558 46.384 43.2198 46.976 42.9478 47.488C42.6838 48 42.3118 48.396 41.8318 48.676C41.3598 48.956 40.8278 49.096 40.2358 49.096C39.6198 49.096 39.0838 48.952 38.6278 48.664C38.1718 48.368 37.8398 48 37.6318 47.56V52.096H36.8038V42.448H37.6318V43.888ZM42.5038 45.712C42.5038 45.168 42.3958 44.7 42.1797 44.308C41.9718 43.908 41.6838 43.604 41.3158 43.396C40.9478 43.188 40.5318 43.084 40.0678 43.084C39.6198 43.084 39.2078 43.192 38.8318 43.408C38.4638 43.624 38.1718 43.932 37.9558 44.332C37.7398 44.732 37.6318 45.196 37.6318 45.724C37.6318 46.252 37.7398 46.716 37.9558 47.116C38.1718 47.516 38.4638 47.824 38.8318 48.04C39.2078 48.256 39.6198 48.364 40.0678 48.364C40.5318 48.364 40.9478 48.26 41.3158 48.052C41.6838 47.836 41.9718 47.528 42.1797 47.128C42.3958 46.72 42.5038 46.248 42.5038 45.712Z" fill="black"/>
<defs>
<linearGradient id="paint0_linear_42_299" x1="30" y1="0" x2="30" y2="56" gradientUnits="userSpaceOnUse">
<stop stop-color="#3C92B4" stop-opacity="0.74"/>
<stop offset="1" stop-color="#7DA6B6"/>
</linearGradient>
</defs>
</svg>
