<svg width="26" height="26" viewBox="0 0 26 26" fill="none" xmlns="http://www.w3.org/2000/svg">
<g clip-path="url(#clip0_15_95)">
<path opacity="0.2" fill-rule="evenodd" clip-rule="evenodd" d="M13.5 26C20.404 26 26 20.404 26 13.5C26 6.596 20.404 1 13.5 1C6.596 1 1 6.596 1 13.5C1 20.404 6.596 26 13.5 26ZM13.5 24C19.299 24 24 19.299 24 13.5C24 7.701 19.299 3 13.5 3C7.701 3 3 7.701 3 13.5C3 19.299 7.701 24 13.5 24Z" fill="black"/>
<path opacity="0.2" d="M15.612 6.474C14.883 6.79326 14.2407 7.28192 13.7386 7.89937C13.2364 8.51682 12.889 9.24522 12.725 10.024C12.5877 10.6668 12.5784 11.3304 12.6976 11.9768C12.8168 12.6232 13.0622 13.2398 13.4197 13.7914C13.7772 14.343 14.2399 14.8188 14.7812 15.1916C15.3226 15.5643 15.9322 15.8268 16.575 15.964C17.6272 16.1871 18.7233 16.065 19.7006 15.6157C20.6779 15.1664 21.4843 14.4139 22 13.47C22.245 13.023 22.923 13.185 22.939 13.694C22.9607 14.3813 22.8989 15.0686 22.755 15.741C21.777 20.341 17.262 23.279 12.67 22.303C8.078 21.327 5.15 16.806 6.127 12.206C7.047 7.88 11.117 4.986 15.472 5.52C15.976 5.582 16.077 6.27 15.612 6.474Z" fill="black"/>
<path fill-rule="evenodd" clip-rule="evenodd" d="M11.275 9.024C11.439 8.24522 11.7864 7.51682 12.2886 6.89937C12.7907 6.28192 13.433 5.79326 14.162 5.474C14.627 5.269 14.526 4.582 14.022 4.52C9.667 3.986 5.597 6.88 4.677 11.206C3.7 15.806 6.629 20.326 11.221 21.303C15.813 22.279 20.328 19.341 21.306 14.741C21.4489 14.0685 21.5107 13.3812 21.49 12.694C21.474 12.185 20.796 12.023 20.551 12.47C20.0352 13.4143 19.2285 14.167 18.2508 14.6164C17.2731 15.0657 16.1765 15.1876 15.124 14.964C13.8259 14.6867 12.6911 13.9051 11.9693 12.7911C11.2475 11.6772 10.9977 10.3221 11.275 9.024ZM5.655 11.414C5.98639 9.852 6.80637 8.43602 7.9962 7.37114C9.18604 6.30626 10.6839 5.64776 12.273 5.491C11.284 6.335 10.579 7.491 10.297 8.816C10.1324 9.58725 10.1214 10.3834 10.2645 11.1589C10.4076 11.9344 10.7021 12.6742 11.1311 13.3359C11.5601 13.9976 12.1153 14.5683 12.7648 15.0155C13.4144 15.4626 14.1457 15.7775 14.917 15.942C15.885 16.1475 16.8888 16.1105 17.839 15.8341C18.7892 15.5577 19.6563 15.0507 20.363 14.358L20.328 14.533C19.465 18.593 15.481 21.186 11.429 20.325C7.378 19.463 4.793 15.475 5.656 11.415" fill="black"/>
<path fill-rule="evenodd" clip-rule="evenodd" d="M13 24.5C19.351 24.5 24.5 19.351 24.5 13C24.5 6.649 19.351 1.5 13 1.5C6.649 1.5 1.5 6.649 1.5 13C1.5 19.351 6.649 24.5 13 24.5ZM13 25.5C19.904 25.5 25.5 19.904 25.5 13C25.5 6.096 19.904 0.5 13 0.5C6.096 0.5 0.5 6.096 0.5 13C0.5 19.904 6.096 25.5 13 25.5Z" fill="black"/>
</g>
<defs>
<clipPath id="clip0_15_95">
<rect width="26" height="26" fill="white"/>
</clipPath>
</defs>
</svg>
