<svg width="60" height="56" viewBox="0 0 60 56" fill="none" xmlns="http://www.w3.org/2000/svg">
<rect width="60" height="56" rx="5" fill="url(#paint0_linear_42_300)"/>
<path d="M25.3033 27.6042H26.7617V17.3958H25.3033V27.6042ZM30.2383 27.6042H31.6967V17.3958H30.2383V27.6042ZM28.5044 35.625C26.6902 35.625 24.984 35.2808 23.3856 34.5925C21.7883 33.9032 20.3985 32.9679 19.2162 31.7867C18.034 30.6054 17.0983 29.2171 16.409 27.6217C15.7197 26.0263 15.375 24.3205 15.375 22.5044C15.375 20.6883 15.7197 18.982 16.409 17.3856C17.0973 15.7883 18.0311 14.3985 19.2104 13.2162C20.3897 12.034 21.7785 11.0983 23.3769 10.409C24.9752 9.71965 26.6815 9.375 28.4956 9.375C30.3098 9.375 32.016 9.71965 33.6144 10.409C35.2117 11.0973 36.6015 12.0316 37.7837 13.2119C38.966 14.3922 39.9017 15.781 40.591 17.3783C41.2803 18.9757 41.625 20.6815 41.625 22.4956C41.625 24.3098 41.2808 26.016 40.5925 27.6144C39.9042 29.2127 38.9689 30.6025 37.7867 31.7837C36.6044 32.965 35.2161 33.9008 33.6217 34.591C32.0272 35.2813 30.3215 35.626 28.5044 35.625ZM28.5 34.1667C31.7569 34.1667 34.5156 33.0365 36.776 30.776C39.0365 28.5156 40.1667 25.7569 40.1667 22.5C40.1667 19.2431 39.0365 16.4844 36.776 14.224C34.5156 11.9635 31.7569 10.8333 28.5 10.8333C25.2431 10.8333 22.4844 11.9635 20.224 14.224C17.9635 16.4844 16.8333 19.2431 16.8333 22.5C16.8333 25.7569 17.9635 28.5156 20.224 30.776C22.4844 33.0365 25.2431 34.1667 28.5 34.1667Z" fill="white"/>
<path d="M18.504 49.084C17.952 49.084 17.464 48.988 17.04 48.796C16.624 48.604 16.296 48.336 16.056 47.992C15.816 47.648 15.688 47.264 15.672 46.84H16.56C16.6 47.248 16.78 47.608 17.1 47.92C17.42 48.224 17.888 48.376 18.504 48.376C19.072 48.376 19.52 48.232 19.848 47.944C20.184 47.648 20.352 47.276 20.352 46.828C20.352 46.468 20.26 46.18 20.076 45.964C19.892 45.74 19.664 45.576 19.392 45.472C19.12 45.36 18.744 45.24 18.264 45.112C17.704 44.96 17.26 44.812 16.932 44.668C16.604 44.524 16.324 44.3 16.092 43.996C15.86 43.692 15.744 43.28 15.744 42.76C15.744 42.328 15.856 41.944 16.08 41.608C16.304 41.264 16.62 40.996 17.028 40.804C17.436 40.612 17.904 40.516 18.432 40.516C19.208 40.516 19.832 40.708 20.304 41.092C20.784 41.468 21.06 41.956 21.132 42.556H20.22C20.164 42.212 19.976 41.908 19.656 41.644C19.336 41.372 18.904 41.236 18.36 41.236C17.856 41.236 17.436 41.372 17.1 41.644C16.764 41.908 16.596 42.272 16.596 42.736C16.596 43.088 16.688 43.372 16.872 43.588C17.056 43.804 17.284 43.968 17.556 44.08C17.836 44.192 18.212 44.312 18.684 44.44C19.228 44.592 19.668 44.744 20.004 44.896C20.34 45.04 20.624 45.264 20.856 45.568C21.088 45.872 21.204 46.28 21.204 46.792C21.204 47.184 21.1 47.556 20.892 47.908C20.684 48.26 20.376 48.544 19.968 48.76C19.56 48.976 19.072 49.084 18.504 49.084ZM23.9192 43.156V47.224C23.9192 47.624 23.9952 47.9 24.1472 48.052C24.2992 48.204 24.5672 48.28 24.9512 48.28H25.7192V49H24.8192C24.2272 49 23.7872 48.864 23.4992 48.592C23.2112 48.312 23.0672 47.856 23.0672 47.224V43.156H22.1552V42.448H23.0672V40.804H23.9192V42.448H25.7192V43.156H23.9192ZM29.9725 49.096C29.3565 49.096 28.8005 48.96 28.3045 48.688C27.8165 48.408 27.4285 48.016 27.1405 47.512C26.8605 47 26.7205 46.404 26.7205 45.724C26.7205 45.044 26.8645 44.452 27.1525 43.948C27.4405 43.436 27.8325 43.044 28.3285 42.772C28.8245 42.492 29.3805 42.352 29.9965 42.352C30.6125 42.352 31.1685 42.492 31.6645 42.772C32.1685 43.044 32.5605 43.436 32.8405 43.948C33.1285 44.452 33.2725 45.044 33.2725 45.724C33.2725 46.396 33.1285 46.988 32.8405 47.5C32.5525 48.012 32.1565 48.408 31.6525 48.688C31.1485 48.96 30.5885 49.096 29.9725 49.096ZM29.9725 48.364C30.4045 48.364 30.8045 48.268 31.1725 48.076C31.5405 47.876 31.8365 47.58 32.0605 47.188C32.2925 46.788 32.4085 46.3 32.4085 45.724C32.4085 45.148 32.2965 44.664 32.0725 44.272C31.8485 43.872 31.5525 43.576 31.1845 43.384C30.8165 43.184 30.4165 43.084 29.9845 43.084C29.5525 43.084 29.1525 43.184 28.7845 43.384C28.4165 43.576 28.1205 43.872 27.8965 44.272C27.6805 44.664 27.5725 45.148 27.5725 45.724C27.5725 46.3 27.6805 46.788 27.8965 47.188C28.1205 47.58 28.4125 47.876 28.7725 48.076C29.1405 48.268 29.5405 48.364 29.9725 48.364ZM35.6318 43.888C35.8398 43.448 36.1678 43.084 36.6158 42.796C37.0718 42.5 37.6118 42.352 38.2358 42.352C38.8278 42.352 39.3598 42.492 39.8318 42.772C40.3118 43.044 40.6838 43.436 40.9478 43.948C41.2198 44.452 41.3558 45.04 41.3558 45.712C41.3558 46.384 41.2198 46.976 40.9478 47.488C40.6838 48 40.3118 48.396 39.8318 48.676C39.3598 48.956 38.8278 49.096 38.2358 49.096C37.6198 49.096 37.0838 48.952 36.6278 48.664C36.1718 48.368 35.8398 48 35.6318 47.56V52.096H34.8038V42.448H35.6318V43.888ZM40.5038 45.712C40.5038 45.168 40.3958 44.7 40.1797 44.308C39.9718 43.908 39.6838 43.604 39.3158 43.396C38.9478 43.188 38.5318 43.084 38.0678 43.084C37.6198 43.084 37.2078 43.192 36.8318 43.408C36.4638 43.624 36.1718 43.932 35.9558 44.332C35.7398 44.732 35.6318 45.196 35.6318 45.724C35.6318 46.252 35.7398 46.716 35.9558 47.116C36.1718 47.516 36.4638 47.824 36.8318 48.04C37.2078 48.256 37.6198 48.364 38.0678 48.364C38.5318 48.364 38.9478 48.26 39.3158 48.052C39.6838 47.836 39.9718 47.528 40.1797 47.128C40.3958 46.72 40.5038 46.248 40.5038 45.712Z" fill="white"/>
<defs>
<linearGradient id="paint0_linear_42_300" x1="30" y1="0" x2="30" y2="56" gradientUnits="userSpaceOnUse">
<stop offset="0.64" stop-color="#06435B"/>
<stop offset="1"/>
</linearGradient>
</defs>
</svg>
