<svg width="60" height="56" viewBox="0 0 60 56" fill="none" xmlns="http://www.w3.org/2000/svg">
<rect width="60" height="56" rx="5" fill="url(#paint0_linear_40_294)"/>
<path d="M41.1429 22C41.1429 28.1536 36.1537 33.1428 30 33.1428C23.8464 33.1428 18.8572 28.1536 18.8572 22C18.8572 15.8463 23.8464 10.8571 30 10.8571C36.1537 10.8571 41.1429 15.8463 41.1429 22ZM36.3849 29.3691L22.6309 15.6151C21.0922 17.386 20.2465 19.654 20.25 22C20.25 27.3848 24.6152 31.75 30 31.75C32.4422 31.75 34.6745 30.852 36.3849 29.3691ZM39.75 22C39.75 16.6152 35.3848 12.25 30 12.25C27.5579 12.25 25.3256 13.1479 23.6152 14.6308L37.3692 28.3848C38.9078 26.6139 39.7535 24.3459 39.75 22Z" fill="white"/>
<path d="M9.324 43.024C9.324 43.744 9.088 44.324 8.616 44.764C8.144 45.204 7.436 45.424 6.492 45.424H4.8V49H3.96V40.612H6.492C7.428 40.612 8.132 40.832 8.604 41.272C9.084 41.712 9.324 42.296 9.324 43.024ZM6.492 44.704C7.804 44.704 8.46 44.144 8.46 43.024C8.46 42.464 8.304 42.04 7.992 41.752C7.68 41.464 7.18 41.32 6.492 41.32H4.8V44.704H6.492ZM13.6014 49.096C12.9854 49.096 12.4294 48.96 11.9334 48.688C11.4454 48.408 11.0574 48.016 10.7694 47.512C10.4894 47 10.3494 46.404 10.3494 45.724C10.3494 45.044 10.4934 44.452 10.7814 43.948C11.0694 43.436 11.4614 43.044 11.9574 42.772C12.4534 42.492 13.0094 42.352 13.6254 42.352C14.2414 42.352 14.7974 42.492 15.2934 42.772C15.7974 43.044 16.1894 43.436 16.4694 43.948C16.7574 44.452 16.9014 45.044 16.9014 45.724C16.9014 46.396 16.7574 46.988 16.4694 47.5C16.1814 48.012 15.7854 48.408 15.2814 48.688C14.7774 48.96 14.2174 49.096 13.6014 49.096ZM13.6014 48.364C14.0334 48.364 14.4334 48.268 14.8014 48.076C15.1694 47.876 15.4654 47.58 15.6894 47.188C15.9214 46.788 16.0374 46.3 16.0374 45.724C16.0374 45.148 15.9254 44.664 15.7014 44.272C15.4774 43.872 15.1814 43.576 14.8134 43.384C14.4454 43.184 14.0454 43.084 13.6134 43.084C13.1814 43.084 12.7814 43.184 12.4134 43.384C12.0454 43.576 11.7494 43.872 11.5254 44.272C11.3094 44.664 11.2014 45.148 11.2014 45.724C11.2014 46.3 11.3094 46.788 11.5254 47.188C11.7494 47.58 12.0414 47.876 12.4014 48.076C12.7694 48.268 13.1694 48.364 13.6014 48.364ZM27.0727 42.448L25.0207 49H24.1807L22.3687 43.504L20.5567 49H19.7047L17.6527 42.448H18.5047L20.1367 48.148L21.9727 42.448H22.8127L24.6247 48.16L26.2447 42.448H27.0727ZM34.1458 45.388C34.1458 45.676 34.1378 45.896 34.1218 46.048H28.6858C28.7098 46.544 28.8298 46.968 29.0458 47.32C29.2618 47.672 29.5458 47.94 29.8978 48.124C30.2498 48.3 30.6338 48.388 31.0498 48.388C31.5938 48.388 32.0498 48.256 32.4178 47.992C32.7938 47.728 33.0418 47.372 33.1618 46.924H34.0498C33.8898 47.564 33.5458 48.088 33.0178 48.496C32.4978 48.896 31.8418 49.096 31.0498 49.096C30.4338 49.096 29.8818 48.96 29.3938 48.688C28.9058 48.408 28.5218 48.016 28.2418 47.512C27.9698 47 27.8338 46.404 27.8338 45.724C27.8338 45.044 27.9698 44.448 28.2418 43.936C28.5138 43.424 28.8938 43.032 29.3818 42.76C29.8698 42.488 30.4258 42.352 31.0498 42.352C31.6738 42.352 32.2178 42.488 32.6818 42.76C33.1538 43.032 33.5138 43.4 33.7618 43.864C34.0178 44.32 34.1458 44.828 34.1458 45.388ZM33.2938 45.364C33.3018 44.876 33.2018 44.46 32.9938 44.116C32.7938 43.772 32.5178 43.512 32.1658 43.336C31.8138 43.16 31.4298 43.072 31.0138 43.072C30.3898 43.072 29.8578 43.272 29.4178 43.672C28.9778 44.072 28.7338 44.636 28.6858 45.364H33.2938ZM36.5227 43.612C36.7067 43.204 36.9867 42.888 37.3627 42.664C37.7467 42.44 38.2147 42.328 38.7667 42.328V43.204H38.5387C37.9307 43.204 37.4427 43.368 37.0747 43.696C36.7067 44.024 36.5227 44.572 36.5227 45.34V49H35.6827V42.448H36.5227V43.612ZM47.0913 49.084C46.3153 49.084 45.6113 48.904 44.9793 48.544C44.3473 48.176 43.8473 47.668 43.4793 47.02C43.1193 46.364 42.9393 45.624 42.9393 44.8C42.9393 43.976 43.1193 43.24 43.4793 42.592C43.8473 41.936 44.3473 41.428 44.9793 41.068C45.6113 40.7 46.3153 40.516 47.0913 40.516C47.8753 40.516 48.5833 40.7 49.2153 41.068C49.8473 41.428 50.3433 41.936 50.7033 42.592C51.0633 43.24 51.2433 43.976 51.2433 44.8C51.2433 45.624 51.0633 46.364 50.7033 47.02C50.3433 47.668 49.8473 48.176 49.2153 48.544C48.5833 48.904 47.8753 49.084 47.0913 49.084ZM47.0913 48.352C47.7153 48.352 48.2753 48.208 48.7713 47.92C49.2673 47.632 49.6593 47.22 49.9473 46.684C50.2353 46.14 50.3793 45.512 50.3793 44.8C50.3793 44.088 50.2353 43.464 49.9473 42.928C49.6593 42.392 49.2673 41.98 48.7713 41.692C48.2753 41.404 47.7153 41.26 47.0913 41.26C46.4673 41.26 45.9073 41.404 45.4113 41.692C44.9153 41.98 44.5233 42.392 44.2353 42.928C43.9473 43.464 43.8033 44.088 43.8033 44.8C43.8033 45.512 43.9473 46.14 44.2353 46.684C44.5233 47.22 44.9153 47.632 45.4113 47.92C45.9073 48.208 46.4673 48.352 47.0913 48.352ZM55.3603 43.156H53.8363V49H52.9963V43.156H52.0843V42.448H52.9963V41.992C52.9963 41.28 53.1763 40.756 53.5363 40.42C53.9043 40.084 54.4963 39.916 55.3123 39.916V40.636C54.7683 40.636 54.3843 40.74 54.1603 40.948C53.9443 41.156 53.8363 41.504 53.8363 41.992V42.448H55.3603V43.156ZM59.2627 43.156H57.7387V49H56.8987V43.156H55.9867V42.448H56.8987V41.992C56.8987 41.28 57.0787 40.756 57.4387 40.42C57.8067 40.084 58.3987 39.916 59.2147 39.916V40.636C58.6707 40.636 58.2867 40.74 58.0627 40.948C57.8467 41.156 57.7387 41.504 57.7387 41.992V42.448H59.2627V43.156Z" fill="white"/>
<defs>
<linearGradient id="paint0_linear_40_294" x1="30" y1="0" x2="30" y2="56" gradientUnits="userSpaceOnUse">
<stop offset="0.64" stop-color="#06435B"/>
<stop offset="1"/>
</linearGradient>
</defs>
</svg>
