<svg width="60" height="56" viewBox="0 0 60 56" fill="none" xmlns="http://www.w3.org/2000/svg">
<rect width="60" height="56" rx="5" fill="url(#paint0_linear_39_291)"/>
<path d="M27.2917 25.8826V18.1173C27.2918 18.0201 27.3181 17.9248 27.3678 17.8413C27.4174 17.7578 27.4887 17.6892 27.574 17.6427C27.6592 17.5962 27.7555 17.5734 27.8526 17.5769C27.9497 17.5803 28.0441 17.6098 28.1258 17.6623L34.1665 21.5439C34.243 21.5929 34.3059 21.6604 34.3495 21.74C34.3931 21.8197 34.4159 21.9091 34.4159 22C34.4159 22.0908 34.3931 22.1802 34.3495 22.2599C34.3059 22.3396 34.243 22.407 34.1665 22.4561L28.1258 26.3387C28.0441 26.3912 27.9497 26.4207 27.8526 26.4241C27.7555 26.4276 27.6592 26.4049 27.574 26.3583C27.4887 26.3118 27.4174 26.2432 27.3678 26.1597C27.3181 26.0762 27.2918 25.9809 27.2917 25.8837V25.8826Z" fill="black"/>
<path d="M18.0833 22C18.0833 15.4187 23.4188 10.0833 30 10.0833C36.5813 10.0833 41.9167 15.4187 41.9167 22C41.9167 28.5812 36.5813 33.9166 30 33.9166C23.4188 33.9166 18.0833 28.5812 18.0833 22ZM30 11.7083C27.2705 11.7083 24.6528 12.7926 22.7227 14.7227C20.7926 16.6527 19.7083 19.2705 19.7083 22C19.7083 24.7295 20.7926 27.3472 22.7227 29.2773C24.6528 31.2073 27.2705 32.2916 30 32.2916C32.7295 32.2916 35.3472 31.2073 37.2773 29.2773C39.2074 27.3472 40.2917 24.7295 40.2917 22C40.2917 19.2705 39.2074 16.6527 37.2773 14.7227C35.3472 12.7926 32.7295 11.7083 30 11.7083Z" fill="black"/>
<path d="M8.324 43.024C8.324 43.744 8.088 44.324 7.616 44.764C7.144 45.204 6.436 45.424 5.492 45.424H3.8V49H2.96V40.612H5.492C6.428 40.612 7.132 40.832 7.604 41.272C8.084 41.712 8.324 42.296 8.324 43.024ZM5.492 44.704C6.804 44.704 7.46 44.144 7.46 43.024C7.46 42.464 7.304 42.04 6.992 41.752C6.68 41.464 6.18 41.32 5.492 41.32H3.8V44.704H5.492ZM12.6014 49.096C11.9854 49.096 11.4294 48.96 10.9334 48.688C10.4454 48.408 10.0574 48.016 9.76944 47.512C9.48944 47 9.34944 46.404 9.34944 45.724C9.34944 45.044 9.49344 44.452 9.78144 43.948C10.0694 43.436 10.4614 43.044 10.9574 42.772C11.4534 42.492 12.0094 42.352 12.6254 42.352C13.2414 42.352 13.7974 42.492 14.2934 42.772C14.7974 43.044 15.1894 43.436 15.4694 43.948C15.7574 44.452 15.9014 45.044 15.9014 45.724C15.9014 46.396 15.7574 46.988 15.4694 47.5C15.1814 48.012 14.7854 48.408 14.2814 48.688C13.7774 48.96 13.2174 49.096 12.6014 49.096ZM12.6014 48.364C13.0334 48.364 13.4334 48.268 13.8014 48.076C14.1694 47.876 14.4654 47.58 14.6894 47.188C14.9214 46.788 15.0374 46.3 15.0374 45.724C15.0374 45.148 14.9254 44.664 14.7014 44.272C14.4774 43.872 14.1814 43.576 13.8134 43.384C13.4454 43.184 13.0454 43.084 12.6134 43.084C12.1814 43.084 11.7814 43.184 11.4134 43.384C11.0454 43.576 10.7494 43.872 10.5254 44.272C10.3094 44.664 10.2014 45.148 10.2014 45.724C10.2014 46.3 10.3094 46.788 10.5254 47.188C10.7494 47.58 11.0414 47.876 11.4014 48.076C11.7694 48.268 12.1694 48.364 12.6014 48.364ZM26.0727 42.448L24.0207 49H23.1807L21.3687 43.504L19.5567 49H18.7047L16.6527 42.448H17.5047L19.1367 48.148L20.9727 42.448H21.8127L23.6247 48.16L25.2447 42.448H26.0727ZM33.1458 45.388C33.1458 45.676 33.1378 45.896 33.1218 46.048H27.6858C27.7098 46.544 27.8298 46.968 28.0458 47.32C28.2618 47.672 28.5458 47.94 28.8978 48.124C29.2498 48.3 29.6338 48.388 30.0498 48.388C30.5938 48.388 31.0498 48.256 31.4178 47.992C31.7938 47.728 32.0418 47.372 32.1618 46.924H33.0498C32.8898 47.564 32.5458 48.088 32.0178 48.496C31.4978 48.896 30.8418 49.096 30.0498 49.096C29.4338 49.096 28.8818 48.96 28.3938 48.688C27.9058 48.408 27.5218 48.016 27.2418 47.512C26.9698 47 26.8338 46.404 26.8338 45.724C26.8338 45.044 26.9698 44.448 27.2418 43.936C27.5138 43.424 27.8938 43.032 28.3818 42.76C28.8698 42.488 29.4258 42.352 30.0498 42.352C30.6738 42.352 31.2178 42.488 31.6818 42.76C32.1538 43.032 32.5138 43.4 32.7618 43.864C33.0178 44.32 33.1458 44.828 33.1458 45.388ZM32.2938 45.364C32.3018 44.876 32.2018 44.46 31.9938 44.116C31.7938 43.772 31.5178 43.512 31.1658 43.336C30.8138 43.16 30.4298 43.072 30.0138 43.072C29.3898 43.072 28.8578 43.272 28.4178 43.672C27.9778 44.072 27.7338 44.636 27.6858 45.364H32.2938ZM35.5227 43.612C35.7067 43.204 35.9867 42.888 36.3627 42.664C36.7467 42.44 37.2147 42.328 37.7667 42.328V43.204H37.5387C36.9307 43.204 36.4427 43.368 36.0747 43.696C35.7067 44.024 35.5227 44.572 35.5227 45.34V49H34.6827V42.448H35.5227V43.612ZM46.0913 49.084C45.3153 49.084 44.6113 48.904 43.9793 48.544C43.3473 48.176 42.8473 47.668 42.4793 47.02C42.1193 46.364 41.9393 45.624 41.9393 44.8C41.9393 43.976 42.1193 43.24 42.4793 42.592C42.8473 41.936 43.3473 41.428 43.9793 41.068C44.6113 40.7 45.3153 40.516 46.0913 40.516C46.8753 40.516 47.5833 40.7 48.2153 41.068C48.8473 41.428 49.3433 41.936 49.7033 42.592C50.0633 43.24 50.2433 43.976 50.2433 44.8C50.2433 45.624 50.0633 46.364 49.7033 47.02C49.3433 47.668 48.8473 48.176 48.2153 48.544C47.5833 48.904 46.8753 49.084 46.0913 49.084ZM46.0913 48.352C46.7153 48.352 47.2753 48.208 47.7713 47.92C48.2673 47.632 48.6593 47.22 48.9473 46.684C49.2353 46.14 49.3793 45.512 49.3793 44.8C49.3793 44.088 49.2353 43.464 48.9473 42.928C48.6593 42.392 48.2673 41.98 47.7713 41.692C47.2753 41.404 46.7153 41.26 46.0913 41.26C45.4673 41.26 44.9073 41.404 44.4113 41.692C43.9153 41.98 43.5233 42.392 43.2353 42.928C42.9473 43.464 42.8033 44.088 42.8033 44.8C42.8033 45.512 42.9473 46.14 43.2353 46.684C43.5233 47.22 43.9153 47.632 44.4113 47.92C44.9073 48.208 45.4673 48.352 46.0913 48.352ZM54.8523 42.328C55.6363 42.328 56.2763 42.572 56.7723 43.06C57.2683 43.54 57.5163 44.24 57.5163 45.16V49H56.6883V45.256C56.6883 44.544 56.5083 44 56.1483 43.624C55.7963 43.248 55.3123 43.06 54.6963 43.06C54.0643 43.06 53.5603 43.26 53.1843 43.66C52.8083 44.06 52.6203 44.648 52.6203 45.424V49H51.7803V42.448H52.6203V43.564C52.8283 43.164 53.1283 42.86 53.5203 42.652C53.9123 42.436 54.3563 42.328 54.8523 42.328Z" fill="black"/>
<defs>
<linearGradient id="paint0_linear_39_291" x1="30" y1="0" x2="30" y2="56" gradientUnits="userSpaceOnUse">
<stop stop-color="#3C92B4" stop-opacity="0.74"/>
<stop offset="1" stop-color="#7DA6B6"/>
</linearGradient>
</defs>
</svg>
