<svg width="386" height="680" viewBox="0 0 386 680" fill="none" xmlns="http://www.w3.org/2000/svg">
<g clip-path="url(#clip0_49_301)">
<rect width="386" height="680" rx="40" fill="white"/>
<rect width="386" height="680" fill="#4A879F"/>
<rect y="580" width="386" height="100" fill="#A2E5FF" fill-opacity="0.32"/>
<rect x="40" y="176" width="70" height="90" rx="5" fill="url(#paint0_linear_49_301)"/>
<path d="M65.156 217.72V226H64.316V219.388L61.364 226H60.752L57.8 219.412V226H56.96V217.72H57.848L61.052 224.896L64.256 217.72H65.156ZM69.9296 226.096C69.3136 226.096 68.7576 225.96 68.2616 225.688C67.7736 225.408 67.3856 225.016 67.0976 224.512C66.8176 224 66.6776 223.404 66.6776 222.724C66.6776 222.044 66.8216 221.452 67.1096 220.948C67.3976 220.436 67.7896 220.044 68.2856 219.772C68.7816 219.492 69.3376 219.352 69.9536 219.352C70.5696 219.352 71.1256 219.492 71.6216 219.772C72.1256 220.044 72.5176 220.436 72.7976 220.948C73.0856 221.452 73.2296 222.044 73.2296 222.724C73.2296 223.396 73.0856 223.988 72.7976 224.5C72.5096 225.012 72.1136 225.408 71.6096 225.688C71.1056 225.96 70.5456 226.096 69.9296 226.096ZM69.9296 225.364C70.3616 225.364 70.7616 225.268 71.1296 225.076C71.4976 224.876 71.7936 224.58 72.0176 224.188C72.2496 223.788 72.3656 223.3 72.3656 222.724C72.3656 222.148 72.2536 221.664 72.0296 221.272C71.8056 220.872 71.5096 220.576 71.1416 220.384C70.7736 220.184 70.3736 220.084 69.9416 220.084C69.5096 220.084 69.1096 220.184 68.7416 220.384C68.3736 220.576 68.0776 220.872 67.8536 221.272C67.6376 221.664 67.5296 222.148 67.5296 222.724C67.5296 223.3 67.6376 223.788 67.8536 224.188C68.0776 224.58 68.3696 224.876 68.7296 225.076C69.0976 225.268 69.4976 225.364 69.9296 225.364ZM74.3768 222.712C74.3768 222.04 74.5128 221.452 74.7848 220.948C75.0568 220.436 75.4288 220.044 75.9008 219.772C76.3808 219.492 76.9208 219.352 77.5208 219.352C78.0968 219.352 78.6168 219.492 79.0808 219.772C79.5448 220.052 79.8848 220.416 80.1008 220.864V217.12H80.9408V226H80.1008V224.536C79.9008 224.992 79.5728 225.368 79.1168 225.664C78.6608 225.952 78.1248 226.096 77.5088 226.096C76.9088 226.096 76.3688 225.956 75.8888 225.676C75.4168 225.396 75.0448 225 74.7728 224.488C74.5088 223.976 74.3768 223.384 74.3768 222.712ZM80.1008 222.724C80.1008 222.196 79.9928 221.732 79.7768 221.332C79.5608 220.932 79.2648 220.624 78.8888 220.408C78.5208 220.192 78.1128 220.084 77.6648 220.084C77.2008 220.084 76.7848 220.188 76.4168 220.396C76.0488 220.604 75.7568 220.908 75.5408 221.308C75.3328 221.7 75.2288 222.168 75.2288 222.712C75.2288 223.248 75.3328 223.72 75.5408 224.128C75.7568 224.528 76.0488 224.836 76.4168 225.052C76.7848 225.26 77.2008 225.364 77.6648 225.364C78.1128 225.364 78.5208 225.256 78.8888 225.04C79.2648 224.824 79.5608 224.516 79.7768 224.116C79.9928 223.716 80.1008 223.252 80.1008 222.724ZM88.7864 222.388C88.7864 222.676 88.7784 222.896 88.7624 223.048H83.3264C83.3504 223.544 83.4704 223.968 83.6864 224.32C83.9024 224.672 84.1864 224.94 84.5384 225.124C84.8904 225.3 85.2744 225.388 85.6904 225.388C86.2344 225.388 86.6904 225.256 87.0584 224.992C87.4344 224.728 87.6824 224.372 87.8024 223.924H88.6904C88.5304 224.564 88.1864 225.088 87.6584 225.496C87.1384 225.896 86.4824 226.096 85.6904 226.096C85.0744 226.096 84.5224 225.96 84.0344 225.688C83.5464 225.408 83.1624 225.016 82.8824 224.512C82.6104 224 82.4744 223.404 82.4744 222.724C82.4744 222.044 82.6104 221.448 82.8824 220.936C83.1544 220.424 83.5344 220.032 84.0224 219.76C84.5104 219.488 85.0664 219.352 85.6904 219.352C86.3144 219.352 86.8584 219.488 87.3224 219.76C87.7944 220.032 88.1544 220.4 88.4024 220.864C88.6584 221.32 88.7864 221.828 88.7864 222.388ZM87.9344 222.364C87.9424 221.876 87.8424 221.46 87.6344 221.116C87.4344 220.772 87.1584 220.512 86.8064 220.336C86.4544 220.16 86.0704 220.072 85.6544 220.072C85.0304 220.072 84.4984 220.272 84.0584 220.672C83.6184 221.072 83.3744 221.636 83.3264 222.364H87.9344ZM91.1633 217.12V226H90.3233V217.12H91.1633Z" fill="white"/>
<rect x="160" y="176" width="70" height="90" rx="5" fill="url(#paint1_linear_49_301)"/>
<path d="M172.424 226L170.348 222.496H168.8V226H167.96V217.612H170.48C171.416 217.612 172.124 217.836 172.604 218.284C173.092 218.732 173.336 219.32 173.336 220.048C173.336 220.656 173.16 221.176 172.808 221.608C172.464 222.032 171.952 222.308 171.272 222.436L173.432 226H172.424ZM168.8 221.812H170.492C171.148 221.812 171.64 221.652 171.968 221.332C172.304 221.012 172.472 220.584 172.472 220.048C172.472 219.496 172.312 219.072 171.992 218.776C171.672 218.472 171.168 218.32 170.48 218.32H168.8V221.812ZM180.931 222.388C180.931 222.676 180.923 222.896 180.907 223.048H175.471C175.495 223.544 175.615 223.968 175.831 224.32C176.047 224.672 176.331 224.94 176.683 225.124C177.035 225.3 177.419 225.388 177.835 225.388C178.379 225.388 178.835 225.256 179.203 224.992C179.579 224.728 179.827 224.372 179.947 223.924H180.835C180.675 224.564 180.331 225.088 179.803 225.496C179.283 225.896 178.627 226.096 177.835 226.096C177.219 226.096 176.667 225.96 176.179 225.688C175.691 225.408 175.307 225.016 175.027 224.512C174.755 224 174.619 223.404 174.619 222.724C174.619 222.044 174.755 221.448 175.027 220.936C175.299 220.424 175.679 220.032 176.167 219.76C176.655 219.488 177.211 219.352 177.835 219.352C178.459 219.352 179.003 219.488 179.467 219.76C179.939 220.032 180.299 220.4 180.547 220.864C180.803 221.32 180.931 221.828 180.931 222.388ZM180.079 222.364C180.087 221.876 179.987 221.46 179.779 221.116C179.579 220.772 179.303 220.512 178.951 220.336C178.599 220.16 178.215 220.072 177.799 220.072C177.175 220.072 176.643 220.272 176.203 220.672C175.763 221.072 175.519 221.636 175.471 222.364H180.079ZM185.048 220.156H183.524V226H182.684V220.156H181.772V219.448H182.684V218.992C182.684 218.28 182.864 217.756 183.224 217.42C183.592 217.084 184.184 216.916 185 216.916V217.636C184.456 217.636 184.072 217.74 183.848 217.948C183.632 218.156 183.524 218.504 183.524 218.992V219.448H185.048V220.156ZM192.298 222.388C192.298 222.676 192.29 222.896 192.274 223.048H186.838C186.862 223.544 186.982 223.968 187.198 224.32C187.414 224.672 187.698 224.94 188.05 225.124C188.402 225.3 188.786 225.388 189.202 225.388C189.746 225.388 190.202 225.256 190.57 224.992C190.946 224.728 191.194 224.372 191.314 223.924H192.202C192.042 224.564 191.698 225.088 191.17 225.496C190.65 225.896 189.994 226.096 189.202 226.096C188.586 226.096 188.034 225.96 187.546 225.688C187.058 225.408 186.674 225.016 186.394 224.512C186.122 224 185.986 223.404 185.986 222.724C185.986 222.044 186.122 221.448 186.394 220.936C186.666 220.424 187.046 220.032 187.534 219.76C188.022 219.488 188.578 219.352 189.202 219.352C189.826 219.352 190.37 219.488 190.834 219.76C191.306 220.032 191.666 220.4 191.914 220.864C192.17 221.32 192.298 221.828 192.298 222.388ZM191.446 222.364C191.454 221.876 191.354 221.46 191.146 221.116C190.946 220.772 190.67 220.512 190.318 220.336C189.966 220.16 189.582 220.072 189.166 220.072C188.542 220.072 188.01 220.272 187.57 220.672C187.13 221.072 186.886 221.636 186.838 222.364H191.446ZM194.675 220.612C194.859 220.204 195.139 219.888 195.515 219.664C195.899 219.44 196.367 219.328 196.919 219.328V220.204H196.691C196.083 220.204 195.595 220.368 195.227 220.696C194.859 221.024 194.675 221.572 194.675 222.34V226H193.835V219.448H194.675V220.612ZM204.111 222.388C204.111 222.676 204.103 222.896 204.087 223.048H198.651C198.675 223.544 198.795 223.968 199.011 224.32C199.227 224.672 199.511 224.94 199.863 225.124C200.215 225.3 200.599 225.388 201.015 225.388C201.559 225.388 202.015 225.256 202.383 224.992C202.759 224.728 203.007 224.372 203.127 223.924H204.015C203.855 224.564 203.511 225.088 202.983 225.496C202.463 225.896 201.807 226.096 201.015 226.096C200.399 226.096 199.847 225.96 199.359 225.688C198.871 225.408 198.487 225.016 198.207 224.512C197.935 224 197.799 223.404 197.799 222.724C197.799 222.044 197.935 221.448 198.207 220.936C198.479 220.424 198.859 220.032 199.347 219.76C199.835 219.488 200.391 219.352 201.015 219.352C201.639 219.352 202.183 219.488 202.647 219.76C203.119 220.032 203.479 220.4 203.727 220.864C203.983 221.32 204.111 221.828 204.111 222.388ZM203.259 222.364C203.267 221.876 203.167 221.46 202.959 221.116C202.759 220.772 202.483 220.512 202.131 220.336C201.779 220.16 201.395 220.072 200.979 220.072C200.355 220.072 199.823 220.272 199.383 220.672C198.943 221.072 198.699 221.636 198.651 222.364H203.259ZM208.72 219.328C209.504 219.328 210.144 219.572 210.64 220.06C211.136 220.54 211.384 221.24 211.384 222.16V226H210.556V222.256C210.556 221.544 210.376 221 210.016 220.624C209.664 220.248 209.18 220.06 208.564 220.06C207.932 220.06 207.428 220.26 207.052 220.66C206.676 221.06 206.488 221.648 206.488 222.424V226H205.648V219.448H206.488V220.564C206.696 220.164 206.996 219.86 207.388 219.652C207.78 219.436 208.224 219.328 208.72 219.328ZM212.857 222.724C212.857 222.044 212.993 221.452 213.265 220.948C213.537 220.436 213.913 220.044 214.393 219.772C214.873 219.492 215.421 219.352 216.037 219.352C216.845 219.352 217.509 219.552 218.029 219.952C218.557 220.352 218.897 220.896 219.049 221.584H218.149C218.037 221.112 217.793 220.744 217.417 220.48C217.049 220.208 216.589 220.072 216.037 220.072C215.597 220.072 215.201 220.172 214.849 220.372C214.497 220.572 214.217 220.872 214.009 221.272C213.809 221.664 213.709 222.148 213.709 222.724C213.709 223.3 213.809 223.788 214.009 224.188C214.217 224.588 214.497 224.888 214.849 225.088C215.201 225.288 215.597 225.388 216.037 225.388C216.589 225.388 217.049 225.256 217.417 224.992C217.793 224.72 218.037 224.344 218.149 223.864H219.049C218.897 224.536 218.557 225.076 218.029 225.484C217.501 225.892 216.837 226.096 216.037 226.096C215.421 226.096 214.873 225.96 214.393 225.688C213.913 225.408 213.537 225.016 213.265 224.512C212.993 224 212.857 223.404 212.857 222.724ZM226.529 222.388C226.529 222.676 226.521 222.896 226.505 223.048H221.069C221.093 223.544 221.213 223.968 221.429 224.32C221.645 224.672 221.929 224.94 222.281 225.124C222.633 225.3 223.017 225.388 223.433 225.388C223.977 225.388 224.433 225.256 224.801 224.992C225.177 224.728 225.425 224.372 225.545 223.924H226.433C226.273 224.564 225.929 225.088 225.401 225.496C224.881 225.896 224.225 226.096 223.433 226.096C222.817 226.096 222.265 225.96 221.777 225.688C221.289 225.408 220.905 225.016 220.625 224.512C220.353 224 220.217 223.404 220.217 222.724C220.217 222.044 220.353 221.448 220.625 220.936C220.897 220.424 221.277 220.032 221.765 219.76C222.253 219.488 222.809 219.352 223.433 219.352C224.057 219.352 224.601 219.488 225.065 219.76C225.537 220.032 225.897 220.4 226.145 220.864C226.401 221.32 226.529 221.828 226.529 222.388ZM225.677 222.364C225.685 221.876 225.585 221.46 225.377 221.116C225.177 220.772 224.901 220.512 224.549 220.336C224.197 220.16 223.813 220.072 223.397 220.072C222.773 220.072 222.241 220.272 221.801 220.672C221.361 221.072 221.117 221.636 221.069 222.364H225.677Z" fill="white"/>
<rect x="278" y="176" width="70" height="90" rx="5" fill="url(#paint2_linear_49_301)"/>
<path d="M298.576 221.8C298.576 220.976 298.756 220.24 299.116 219.592C299.476 218.936 299.968 218.428 300.592 218.068C301.216 217.7 301.912 217.516 302.68 217.516C303.616 217.516 304.416 217.74 305.08 218.188C305.752 218.628 306.24 219.252 306.544 220.06H305.56C305.32 219.492 304.952 219.048 304.456 218.728C303.968 218.408 303.376 218.248 302.68 218.248C302.064 218.248 301.508 218.392 301.012 218.68C300.524 218.968 300.14 219.384 299.86 219.928C299.58 220.464 299.44 221.088 299.44 221.8C299.44 222.512 299.58 223.136 299.86 223.672C300.14 224.208 300.524 224.62 301.012 224.908C301.508 225.196 302.064 225.34 302.68 225.34C303.376 225.34 303.968 225.184 304.456 224.872C304.952 224.552 305.32 224.112 305.56 223.552H306.544C306.24 224.352 305.752 224.972 305.08 225.412C304.408 225.852 303.608 226.072 302.68 226.072C301.912 226.072 301.216 225.892 300.592 225.532C299.968 225.164 299.476 224.656 299.116 224.008C298.756 223.36 298.576 222.624 298.576 221.8ZM311.086 226.096C310.47 226.096 309.914 225.96 309.418 225.688C308.93 225.408 308.542 225.016 308.254 224.512C307.974 224 307.834 223.404 307.834 222.724C307.834 222.044 307.978 221.452 308.266 220.948C308.554 220.436 308.946 220.044 309.442 219.772C309.938 219.492 310.494 219.352 311.11 219.352C311.726 219.352 312.282 219.492 312.778 219.772C313.282 220.044 313.674 220.436 313.954 220.948C314.242 221.452 314.386 222.044 314.386 222.724C314.386 223.396 314.242 223.988 313.954 224.5C313.666 225.012 313.27 225.408 312.766 225.688C312.262 225.96 311.702 226.096 311.086 226.096ZM311.086 225.364C311.518 225.364 311.918 225.268 312.286 225.076C312.654 224.876 312.95 224.58 313.174 224.188C313.406 223.788 313.522 223.3 313.522 222.724C313.522 222.148 313.41 221.664 313.186 221.272C312.962 220.872 312.666 220.576 312.298 220.384C311.93 220.184 311.53 220.084 311.098 220.084C310.666 220.084 310.266 220.184 309.898 220.384C309.53 220.576 309.234 220.872 309.01 221.272C308.794 221.664 308.686 222.148 308.686 222.724C308.686 223.3 308.794 223.788 309.01 224.188C309.234 224.58 309.526 224.876 309.886 225.076C310.254 225.268 310.654 225.364 311.086 225.364ZM316.757 217.12V226H315.917V217.12H316.757ZM321.527 226.096C320.911 226.096 320.355 225.96 319.859 225.688C319.371 225.408 318.983 225.016 318.695 224.512C318.415 224 318.275 223.404 318.275 222.724C318.275 222.044 318.419 221.452 318.707 220.948C318.995 220.436 319.387 220.044 319.883 219.772C320.379 219.492 320.935 219.352 321.551 219.352C322.167 219.352 322.723 219.492 323.219 219.772C323.723 220.044 324.115 220.436 324.395 220.948C324.683 221.452 324.827 222.044 324.827 222.724C324.827 223.396 324.683 223.988 324.395 224.5C324.107 225.012 323.711 225.408 323.207 225.688C322.703 225.96 322.143 226.096 321.527 226.096ZM321.527 225.364C321.959 225.364 322.359 225.268 322.727 225.076C323.095 224.876 323.391 224.58 323.615 224.188C323.847 223.788 323.963 223.3 323.963 222.724C323.963 222.148 323.851 221.664 323.627 221.272C323.403 220.872 323.107 220.576 322.739 220.384C322.371 220.184 321.971 220.084 321.539 220.084C321.107 220.084 320.707 220.184 320.339 220.384C319.971 220.576 319.675 220.872 319.451 221.272C319.235 221.664 319.127 222.148 319.127 222.724C319.127 223.3 319.235 223.788 319.451 224.188C319.675 224.58 319.967 224.876 320.327 225.076C320.695 225.268 321.095 225.364 321.527 225.364ZM327.198 220.612C327.382 220.204 327.662 219.888 328.038 219.664C328.422 219.44 328.89 219.328 329.442 219.328V220.204H329.214C328.606 220.204 328.118 220.368 327.75 220.696C327.382 221.024 327.198 221.572 327.198 222.34V226H326.358V219.448H327.198V220.612Z" fill="white"/>
<path d="M222.188 41.25C221.836 40.6641 218.366 39.1652 218.366 39.1652C218.97 38.8535 219.382 38.7891 219.382 37.5C219.382 36.0938 219.375 35.625 218.438 35.625H215.257C215.244 35.5969 215.23 35.5676 215.217 35.5383C213.164 31.0547 212.889 29.9215 209.827 28.3957C205.719 26.3531 198.019 26.25 195 26.25C191.981 26.25 184.281 26.3531 180.177 28.3957C177.111 29.9191 177.188 30.7031 174.786 35.5383C174.786 35.5512 174.762 35.5852 174.739 35.625H171.555C170.625 35.625 170.618 36.0938 170.618 37.5C170.618 38.7891 171.03 38.8535 171.634 39.1652C171.634 39.1652 168.281 40.7812 167.812 41.25C167.344 41.7188 166.875 45 166.875 50.625C166.875 56.25 167.344 61.875 167.344 61.875H168.743C168.743 63.5156 168.984 63.75 169.688 63.75H179.062C179.766 63.75 180 63.5156 180 61.875H210C210 63.5156 210.234 63.75 210.938 63.75H220.547C221.016 63.75 221.25 63.3984 221.25 61.875H222.656C222.656 61.875 223.125 56.1328 223.125 50.625C223.125 45.1172 222.539 41.8359 222.188 41.25ZM179.679 46.5164C177.545 46.7497 175.399 46.8694 173.252 46.875C170.859 46.875 170.777 47.0285 170.609 45.5344C170.545 44.8505 170.565 44.1614 170.668 43.4824L170.742 43.125H171.094C172.5 43.125 173.821 43.1848 176.314 43.9195C177.583 44.3001 178.776 44.8972 179.841 45.6844C180.352 46.0547 180.469 46.4062 180.469 46.4062L179.679 46.5164ZM208.643 54.9539L208.125 56.25H181.875C181.875 56.25 181.921 56.1785 181.289 54.9398C180.82 54.0234 181.406 53.4375 182.333 53.1047C184.129 52.4578 189.375 50.625 195 50.625C200.625 50.625 205.976 52.2047 207.715 53.1047C208.359 53.4375 209.16 53.6719 208.643 54.9609V54.9539ZM178.526 38.9543C178.147 38.9762 177.768 38.9789 177.389 38.9625C177.695 38.4187 177.865 37.8129 178.164 37.1801C179.101 35.1879 180.173 32.9332 182.082 31.9828C184.841 30.6094 190.559 29.9906 195 29.9906C199.441 29.9906 205.159 30.6047 207.918 31.9828C209.827 32.9332 210.894 35.1891 211.836 37.1801C212.138 37.8188 212.305 38.4293 212.619 38.9766C212.385 38.9895 212.115 38.9766 211.472 38.9543H178.526ZM219.274 45.5297C219.023 46.9922 219.258 46.875 216.748 46.875C214.601 46.8694 212.455 46.7497 210.321 46.5164C209.987 46.4566 209.892 45.893 210.159 45.6844C211.219 44.8884 212.413 44.2905 213.686 43.9195C216.179 43.1848 217.583 43.0863 218.97 43.1355C219.063 43.1391 219.151 43.177 219.218 43.2419C219.285 43.3068 219.325 43.3941 219.332 43.4871C219.398 44.1693 219.379 44.857 219.274 45.5344V45.5297Z" fill="#03364A"/>
<g filter="url(#filter0_i_49_301)">
<rect x="93.5" y="97.5" width="199" height="47" rx="19.5" stroke="#03364A"/>
</g>
<path d="M68.035 200.615C68.4233 200.615 68.7517 200.479 69.02 200.208C69.2892 199.935 69.4238 199.605 69.4238 199.216C69.4238 198.827 69.2875 198.498 69.015 198.229C68.7425 197.961 68.4121 197.827 68.0238 197.827C67.6346 197.827 67.3054 197.963 67.0363 198.235C66.7688 198.508 66.635 198.838 66.635 199.227C66.635 199.616 66.7708 199.944 67.0425 200.212C67.315 200.481 67.6458 200.615 68.035 200.615ZM79.4712 200.615C79.8396 200.615 80.1546 200.494 80.4163 200.253C80.6771 200.011 80.8196 199.708 80.8437 199.344C80.4912 199.244 80.1554 199.103 79.8363 198.923C79.5171 198.742 79.2096 198.51 78.9137 198.229L78.7338 198.049C78.5413 198.167 78.3838 198.331 78.2613 198.54C78.1388 198.75 78.0775 198.977 78.0775 199.221C78.0775 199.609 78.2129 199.938 78.4837 200.209C78.7546 200.48 79.0837 200.615 79.4712 200.615ZM65.2875 203.5V205.375C65.2875 205.553 65.2279 205.701 65.1087 205.82C64.9896 205.939 64.8412 205.999 64.6637 206H64.375C64.1975 206 64.0492 205.94 63.93 205.82C63.8108 205.7 63.7508 205.552 63.75 205.375V196.193L66.2313 189.125C66.2921 188.927 66.4092 188.773 66.5825 188.663C66.7567 188.554 66.9504 188.5 67.1637 188.5H71.395V188.896C71.395 189.031 71.4 189.172 71.41 189.319C71.42 189.465 71.4433 189.609 71.48 189.75H67.3625L65.5212 194.943H75.605L76.855 196.193H65V202.25H82.5V199.503C82.7183 199.478 82.9329 199.431 83.1437 199.364C83.3537 199.295 83.5558 199.207 83.75 199.099V205.375C83.75 205.553 83.69 205.701 83.57 205.82C83.45 205.939 83.3017 205.999 83.125 206H82.8375C82.66 206 82.5113 205.94 82.3913 205.82C82.2713 205.7 82.2112 205.552 82.2112 205.375V203.5H65.2875ZM78.75 188.163C79.0083 188.163 79.225 188.075 79.4 187.9C79.575 187.726 79.6625 187.509 79.6625 187.25C79.6625 186.991 79.575 186.774 79.4 186.6C79.2258 186.425 79.0092 186.337 78.75 186.337C78.4908 186.337 78.2742 186.425 78.1 186.6C77.925 186.774 77.8375 186.991 77.8375 187.25C77.8375 187.509 77.925 187.726 78.1 187.9C78.2742 188.075 78.4908 188.163 78.75 188.163ZM80.9525 196.063L74.8175 189.928C74.6867 189.797 74.58 189.638 74.4975 189.45C74.415 189.263 74.3742 189.07 74.375 188.872V184.39C74.375 183.948 74.5221 183.586 74.8162 183.303C75.1112 183.018 75.4692 182.875 75.89 182.875H80.3725C80.5692 182.875 80.7617 182.916 80.95 182.998C81.1383 183.079 81.2975 183.186 81.4275 183.317L87.5625 189.453C87.8683 189.758 88.0212 190.117 88.0212 190.528C88.0212 190.939 87.8683 191.298 87.5625 191.603L83.1037 196.063C82.7971 196.368 82.4383 196.521 82.0275 196.521C81.6167 196.521 81.2583 196.368 80.9525 196.063ZM81.4775 194.837C81.6225 194.981 81.8033 195.052 82.02 195.052C82.2358 195.052 82.4158 194.98 82.56 194.836L86.3363 191.06C86.4804 190.916 86.5525 190.735 86.5525 190.519C86.5525 190.302 86.4804 190.122 86.3363 189.979L80.6988 184.341C80.6188 184.261 80.5308 184.205 80.435 184.174C80.3392 184.142 80.2433 184.126 80.1475 184.125H76.01C75.8975 184.125 75.805 184.161 75.7325 184.234C75.66 184.306 75.6242 184.398 75.625 184.509V188.646C75.625 188.743 75.6412 188.839 75.6737 188.935C75.7054 189.032 75.7613 189.12 75.8413 189.2L81.4775 194.837Z" fill="black"/>
<path d="M183.75 197.784C183.75 197.67 183.757 197.557 183.77 197.443C183.783 197.328 183.81 197.217 183.851 197.107L186.231 190.375C186.292 190.177 186.409 190.023 186.582 189.913C186.757 189.804 186.95 189.75 187.164 189.75H192.156C192.334 189.75 192.482 189.81 192.601 189.93C192.72 190.05 192.78 190.199 192.781 190.376C192.782 190.554 192.722 190.702 192.601 190.821C192.48 190.94 192.332 191 192.156 191H187.361L185.52 196.193H195.625C195.803 196.193 195.951 196.253 196.07 196.373C196.189 196.493 196.249 196.641 196.25 196.819C196.251 196.996 196.191 197.145 196.07 197.264C195.949 197.383 195.801 197.443 195.625 197.443H185V203.5H202.5V198.396C202.5 198.22 202.56 198.071 202.68 197.951C202.8 197.831 202.949 197.771 203.126 197.771C203.304 197.771 203.452 197.831 203.571 197.951C203.69 198.071 203.75 198.22 203.75 198.396V206.481C203.75 206.695 203.675 206.876 203.525 207.026C203.375 207.175 203.192 207.25 202.977 207.25C202.763 207.25 202.582 207.175 202.434 207.025C202.285 206.876 202.211 206.695 202.211 206.481V204.75H185.289V206.481C185.289 206.695 185.214 206.876 185.064 207.025C184.914 207.175 184.731 207.25 184.516 207.25C184.302 207.25 184.121 207.175 183.972 207.025C183.824 206.877 183.75 206.695 183.75 206.481V197.784ZM199.477 201.865C199.866 201.865 200.194 201.729 200.463 201.457C200.731 201.185 200.865 200.855 200.865 200.466C200.865 200.077 200.729 199.748 200.457 199.479C200.185 199.211 199.854 199.077 199.465 199.077C199.077 199.077 198.748 199.213 198.48 199.485C198.211 199.758 198.076 200.088 198.076 200.477C198.076 200.866 198.213 201.194 198.485 201.463C198.758 201.731 199.089 201.865 199.477 201.865ZM188.034 201.865C188.423 201.865 188.752 201.729 189.021 201.457C189.289 201.185 189.423 200.855 189.423 200.466C189.423 200.077 189.287 199.748 189.015 199.479C188.742 199.211 188.412 199.077 188.023 199.077C187.634 199.077 187.306 199.213 187.038 199.485C186.769 199.758 186.635 200.088 186.635 200.477C186.635 200.866 186.771 201.194 187.042 201.463C187.315 201.731 187.645 201.865 188.034 201.865ZM200.759 194.75C199.373 194.75 198.195 194.265 197.225 193.295C196.254 192.324 195.769 191.14 195.769 189.741C195.769 188.359 196.253 187.181 197.222 186.209C198.192 185.236 199.377 184.75 200.779 184.75C202.165 184.75 203.343 185.235 204.314 186.206C205.285 187.176 205.77 188.358 205.77 189.75C205.77 191.142 205.281 192.324 204.304 193.295C203.326 194.266 202.145 194.751 200.759 194.75ZM200.769 190.52C200.897 190.52 201.01 190.472 201.106 190.375C201.202 190.279 201.25 190.167 201.25 190.038V187.25C201.25 187.122 201.202 187.009 201.106 186.913C201.01 186.818 200.897 186.77 200.769 186.77C200.641 186.77 200.529 186.818 200.433 186.914C200.337 187.01 200.289 187.122 200.289 187.25V190.038C200.289 190.167 200.337 190.279 200.433 190.375C200.529 190.472 200.64 190.52 200.769 190.52ZM200.77 192.827C200.937 192.827 201.07 192.773 201.17 192.664C201.272 192.555 201.33 192.425 201.346 192.274C201.346 192.114 201.292 191.974 201.184 191.854C201.075 191.734 200.937 191.673 200.77 191.673C200.602 191.672 200.465 191.726 200.356 191.836C200.248 191.946 200.193 192.084 200.192 192.25C200.192 192.416 200.246 192.553 200.355 192.662C200.465 192.772 200.603 192.827 200.77 192.827Z" fill="black"/>
<path d="M313.006 187.346C312.593 187.346 312.24 187.201 311.949 186.911C311.656 186.622 311.51 186.27 311.51 185.856C311.51 185.531 311.617 185.182 311.83 184.81C312.044 184.438 312.434 183.937 313 183.307C313.566 183.937 313.955 184.438 314.169 184.81C314.383 185.182 314.49 185.53 314.49 185.856C314.49 186.27 314.346 186.622 314.057 186.911C313.768 187.201 313.417 187.346 313.005 187.346M307.044 187.346C306.631 187.346 306.279 187.201 305.986 186.911C305.694 186.621 305.548 186.27 305.549 185.856C305.549 185.531 305.655 185.182 305.869 184.81C306.083 184.438 306.473 183.937 307.039 183.307C307.604 183.937 307.993 184.438 308.208 184.81C308.422 185.182 308.529 185.53 308.529 185.856C308.529 186.27 308.385 186.622 308.096 186.911C307.807 187.201 307.456 187.346 307.044 187.346ZM318.968 187.346C318.555 187.346 318.203 187.201 317.91 186.911C317.618 186.622 317.471 186.27 317.471 185.856C317.471 185.531 317.578 185.182 317.792 184.81C318.006 184.438 318.395 183.937 318.961 183.307C319.527 183.937 319.917 184.438 320.131 184.81C320.345 185.182 320.452 185.53 320.452 185.856C320.452 186.27 320.308 186.622 320.019 186.911C319.73 187.201 319.38 187.346 318.968 187.346ZM304.538 206V208.5H303V198.692L305.703 191H320.299L323 198.692V208.5H321.463V206H304.538ZM304.769 197.442H321.23L319.39 192.25H306.611L304.769 197.442ZM307.284 203.115C307.672 203.115 308 202.979 308.269 202.707C308.538 202.435 308.673 202.104 308.673 201.715C308.673 201.327 308.536 200.998 308.264 200.73C307.991 200.461 307.661 200.326 307.273 200.326C306.883 200.326 306.554 200.462 306.285 200.735C306.017 201.007 305.884 201.338 305.884 201.726C305.884 202.115 306.02 202.445 306.291 202.714C306.564 202.981 306.895 203.115 307.284 203.115ZM318.726 203.115C319.115 203.115 319.443 202.979 319.711 202.707C319.98 202.435 320.114 202.104 320.114 201.715C320.114 201.327 319.978 200.998 319.706 200.73C319.434 200.461 319.103 200.326 318.715 200.326C318.326 200.326 317.997 200.462 317.727 200.735C317.46 201.007 317.326 201.338 317.326 201.726C317.326 202.115 317.462 202.445 317.734 202.714C318.006 202.981 318.337 203.115 318.726 203.115ZM304.249 204.75H321.75V198.692H304.249V204.75Z" fill="black"/>
<rect x="18" y="297" width="350" height="240" fill="#6A99AC"/>
</g>
<defs>
<filter id="filter0_i_49_301" x="93" y="97" width="200" height="52" filterUnits="userSpaceOnUse" color-interpolation-filters="sRGB">
<feFlood flood-opacity="0" result="BackgroundImageFix"/>
<feBlend mode="normal" in="SourceGraphic" in2="BackgroundImageFix" result="shape"/>
<feColorMatrix in="SourceAlpha" type="matrix" values="0 0 0 0 0 0 0 0 0 0 0 0 0 0 0 0 0 0 127 0" result="hardAlpha"/>
<feOffset dy="4"/>
<feGaussianBlur stdDeviation="2"/>
<feComposite in2="hardAlpha" operator="arithmetic" k2="-1" k3="1"/>
<feColorMatrix type="matrix" values="0 0 0 0 0 0 0 0 0 0 0 0 0 0 0 0 0 0 0.25 0"/>
<feBlend mode="normal" in2="shape" result="effect1_innerShadow_49_301"/>
</filter>
<linearGradient id="paint0_linear_49_301" x1="75" y1="176" x2="75" y2="266" gradientUnits="userSpaceOnUse">
<stop offset="0.64" stop-color="#06435B"/>
<stop offset="1"/>
</linearGradient>
<linearGradient id="paint1_linear_49_301" x1="195" y1="176" x2="195" y2="266" gradientUnits="userSpaceOnUse">
<stop offset="0.639423" stop-color="#06435B"/>
<stop offset="1"/>
</linearGradient>
<linearGradient id="paint2_linear_49_301" x1="313" y1="176" x2="313" y2="266" gradientUnits="userSpaceOnUse">
<stop offset="0.64" stop-color="#06435B"/>
<stop offset="1"/>
</linearGradient>
<clipPath id="clip0_49_301">
<rect width="386" height="680" rx="40" fill="white"/>
</clipPath>
</defs>
</svg>
